<svg xmlns="http://www.w3.org/2000/svg" viewBox="0 0 540 136">
  <path d="M66.6 64.8c-.4 0-.6.8-.6.8h1.1c0-.2-.1-.8-.5-.8zm1.7-.1c-.6 0-.7.6-.7.9H69s-.1-.9-.7-.9z" fill="#0872B9"/>
  <circle cx="69.2" cy="63" r=".9" fill="#0872B9"/>
  <path d="M71.8 64.7c-.4 0-.5.9-.5.9h.9s0-.9-.4-.9zm-1.6 0c-.6 0-.7.9-.7.9h1.3s0-.9-.6-.9zm1.1 6.3h1.3v-2.4h-1.3V71z" fill="#0872B9"/>
  <path d="M65 63.6c0-.2.7-2.5 4.1-2.5 3.3 0 4.1 2.3 4.1 2.6v10.5h.6V63.4c0-.5-.9-2.9-4.6-2.9-3.8 0-4.6 2.5-4.6 2.9v10.8h.6c-.2-3.5-.2-10.5-.2-10.6z" fill="#0872B9"/>
  <path d="M71.3 71.3v2.2h-.6v-2.2H70V71h.7v-2.4h-.6v-.5h.6v-1.7h.6v1.7h1.4v-4.5c0-.3-.9-2.2-3.6-2.2s-3.6 1.9-3.6 2.2v10.5h7.2v-2.8h-1.4zm-2.1-9.5c.7 0 1.2.5 1.2 1.2s-.5 1.2-1.2 1.2S68 63.7 68 63c0-.6.5-1.2 1.2-1.2zm.3 11.7H69v-2.2h-1.5v2.2H67v-2.2h-1V71h1.1v-2.2h.5V71H69v-2.4h-3v-.5h1.1v-1.6h.5v1.6H69V66h-3v-.4h-.4c0-.2.1-1.3 1-1.3.5 0 .8.6.8.6s.2-.6.9-.6c.6 0 1 .7 1 .7s.3-.7.9-.7c.6 0 .9.6.9.6s.1-.6.8-.6c.7 0 .8 1.3.8 1.3h-.4v.3h-2.7v7.6z" fill="#0872B9"/>
  <path d="M66 64.6s.4-.7 1-.7h4.4s.9.6.9.8l-.8-.3h-4.8l-.7.2zm14.9 19.7c-.4 0-.6.8-.6.8h1.1c0-.2-.1-.8-.5-.8zm1.7-.1c-.6 0-.7.6-.7.9h1.4c.1 0-.1-.9-.7-.9z" fill="#0872B9"/>
  <circle cx="83.5" cy="82.5" r=".9" fill="#0872B9"/>
  <path d="M86.1 84.2c-.4 0-.5.9-.5.9h.9c.1 0 0-.9-.4-.9zm-1.6 0c-.6 0-.7.9-.7.9h1.3s0-.9-.6-.9zm1.2 6.3H87v-2.4h-1.3v2.4z" fill="#0872B9"/>
  <path d="M83.4 79.9c-3.8 0-4.6 2.5-4.6 2.9V96H88V82.8s-.8-2.9-4.6-2.9zm-.8 3.9c.6 0 1 .7 1 .7s.3-.7.9-.7c.6 0 .9.6.9.6s.1-.6.8-.6c.7 0 .8 1.3.8 1.3h-.4v.3h-2.7V93h-.5v-2.2h-1.5V93h-.5v-2.2h-1.1v-.3h1.1v-2.2h.5v2.2h1.5v-2.4h-3.1v-.5h1.1V86h.5v1.6h1.5v-2.2h-3.1V85h-.4c0-.2.1-1.3 1-1.3.5 0 .8.6.8.6s.2-.5.9-.5zm-.3-1.2c0-.7.5-1.2 1.2-1.2s1.2.5 1.2 1.2-.5 1.2-1.2 1.2c-.6 0-1.2-.6-1.2-1.2zm2.2 12.6c-.1.3-.6.5-.6.5s-.2 0-.5-.3-.3-.8-.3-.8.1-.4.4-.4c.3 0 .4.3.4.3s.2-.1.2-.4c0-.3-.5-.3-.5-.3l-.4.1s-.5.3-.5.9c0 .6.4.8.4.8h-.3c-.2 0-.5-.4-.5-.4s-.1-.5-.3-.4c-.1.3.1.8.1.8h-1.9v-1.9h3.6s.1 0 .3.2c.6.4.5 1 .4 1.3zm2.1.5h-1.9s.3-.3.3-1-.3-1-.3-1h1.9v2zm.9-.1H87v-4.8h-1.3V93h-.6v-2.2h-.7v-.3h.7v-2.4h-.6v-.5h.6v-1.7h.6v1.7H87v-4.5c0-.3-.9-2.2-3.6-2.2s-3.6 1.9-3.6 2.2v12.4h-.5V82.9c0-.2.7-2.5 4.1-2.5 3.3 0 4.1 2.3 4.1 2.6v12.6z" fill="#0872B9"/>
  <path d="M80.3 84.1s.4-.7 1-.7h4.4c.3 0 .9.6.9.8l-.8-.3H81l-.7.2zm.3-19.3c-.4 0-.6.8-.6.8h1.1c0-.2-.1-.8-.5-.8zm1.7-.1c-.6 0-.7.6-.7.9H83s-.1-.9-.7-.9z" fill="#0872B9"/>
  <circle cx="83.2" cy="63" r=".9" fill="#0872B9"/>
  <path d="M85.8 64.7c-.4 0-.5.9-.5.9h.9c.1 0 0-.9-.4-.9zm-1.6 0c-.6 0-.7.9-.7.9h1.3s0-.9-.6-.9zm1.2 6.3h1.3v-2.4h-1.3V71z" fill="#0872B9"/>
  <path d="M79 63.6c0-.2.7-2.5 4.1-2.5 3.3 0 4.1 2.3 4.1 2.6v10.5h.6V63.4c0-.5-.9-2.9-4.6-2.9-3.8 0-4.6 2.5-4.6 2.9v10.8h.6c-.2-3.5-.2-10.5-.2-10.6z" fill="#0872B9"/>
  <path d="M85.4 71.3v2.2h-.6v-2.2h-.7V71h.7v-2.4h-.6v-.5h.6v-1.7h.6v1.7h1.4v-4.5c0-.3-.9-2.2-3.6-2.2s-3.6 1.9-3.6 2.2v10.5h7.2v-2.8h-1.4zm-2.2-9.5c.7 0 1.2.5 1.2 1.2s-.5 1.2-1.2 1.2S82 63.7 82 63c0-.6.5-1.2 1.2-1.2zm.3 11.7H83v-2.2h-1.5v2.2H81v-2.2h-1V71h1.1v-2.2h.5V71H83v-2.4h-3v-.5h1.1v-1.6h.5v1.6H83V66h-3v-.4h-.4c0-.2.1-1.3 1-1.3.5 0 .8.6.8.6s.2-.6.9-.6c.6 0 1 .7 1 .7s.3-.7.9-.7c.6 0 .9.6.9.6s.1-.6.8-.6c.7 0 .8 1.3.8 1.3h-.4v.3h-2.7v7.6z" fill="#0872B9"/>
  <path d="M80 64.6s.4-.7 1-.7h4.4c.3 0 .9.6.9.8l-.8-.3h-4.8l-.7.2zM52 84.3c-.4 0-.6.8-.6.8h1.1c0-.2-.1-.8-.5-.8zm1.7-.1c-.6 0-.7.6-.7.9h1.4c.1 0-.1-.9-.7-.9z" fill="#0872B9"/>
  <circle cx="54.6" cy="82.6" r=".9" fill="#0872B9"/>
  <path d="M57.2 84.2c-.4 0-.5.9-.5.9h.9c.1 0 0-.9-.4-.9zm-1.6 0c-.6 0-.7.9-.7.9h1.3s0-.9-.6-.9zm1.2 6.3h1.3v-2.4h-1.3v2.4z" fill="#0872B9"/>
  <path d="M54.5 79.9c-3.8 0-4.6 2.5-4.6 2.9V96h9.3V82.8s-.9-2.9-4.7-2.9zm-.8 4c.6 0 1 .7 1 .7s.3-.7.9-.7c.6 0 .9.6.9.6s.1-.6.8-.6c.7 0 .8 1.3.8 1.3h-.4v.3H55V93h-.5v-2.2H53V93h-.5v-2.2h-1.1v-.3h1.1v-2.2h.5v2.2h1.5v-2.4h-3.1v-.5h1.1V86h.5v1.6h1.5v-2.2h-3.1V85H51c0-.2.1-1.3 1-1.3.5 0 .8.6.8.6s.2-.4.9-.4zm-.3-1.3c0-.7.5-1.2 1.2-1.2s1.2.5 1.2 1.2-.5 1.2-1.2 1.2-1.2-.6-1.2-1.2zm2.2 12.6c-.1.3-.6.5-.6.5s-.2 0-.5-.3-.3-.8-.3-.8.1-.4.4-.4c.3 0 .4.3.4.3s.2-.1.2-.4c0-.3-.5-.3-.5-.3l-.4.2s-.5.3-.5.9c0 .6.4.8.4.8h-.3c-.2 0-.5-.4-.5-.4s-.1-.5-.3-.4c-.1.3.1.8.1.8h-1.9v-1.9H55s.1 0 .3.2c.5.3.4.9.3 1.2zm2.1.5h-1.9s.3-.3.3-1-.3-1-.3-1h1.9v2zm.9 0h-.5v-4.8h-1.3V93h-.6v-2.2h-.7v-.3h.7v-2.4h-.6v-.5h.6v-1.7h.6v1.7h1.4v-4.5c0-.3-.9-2.2-3.6-2.2S51 82.8 51 83.1v12.4h-.5V82.9c0-.2.7-2.5 4.1-2.5 3.3 0 4.1 2.3 4.1 2.6-.1.5-.1 12.7-.1 12.7z" fill="#0872B9"/>
  <path d="M51.4 84.1s.4-.7 1-.7h4.4s.9.6.9.8l-.7-.3h-4.8l-.8.2zm.4-19.3c-.4 0-.6.8-.6.8h1.1c.1-.2 0-.8-.5-.8zm1.8-.1c-.6 0-.7.6-.7.9h1.4s-.1-.9-.7-.9z" fill="#0872B9"/>
  <circle cx="54.5" cy="63" r=".9" fill="#0872B9"/>
  <path d="M57.1 64.7c-.4 0-.5.9-.5.9h.9s0-.9-.4-.9zm-1.6 0c-.6 0-.7.9-.7.9h1.3s0-.9-.6-.9zm1.1 6.3H58v-2.4h-1.3V71z" fill="#0872B9"/>
  <path d="M50.3 63.6c0-.2.7-2.5 4.1-2.5 3.3 0 4.1 2.3 4.1 2.6v10.5h.6V63.4c0-.5-.9-2.9-4.6-2.9-3.8 0-4.6 2.5-4.6 2.9v10.8h.6c-.2-3.5-.2-10.5-.2-10.6z" fill="#0872B9"/>
  <path d="M56.6 71.3v2.2H56v-2.2h-.7V71h.7v-2.4h-.6v-.5h.6v-1.7h.6v1.7H58v-4.5c0-.3-.9-2.2-3.6-2.2s-3.6 1.9-3.6 2.2v10.5H58v-2.8h-1.4zm-2.1-9.5c.7 0 1.2.5 1.2 1.2s-.5 1.2-1.2 1.2-1.2-.5-1.2-1.2c0-.6.5-1.2 1.2-1.2zm.3 11.7h-.5v-2.2h-1.5v2.2h-.5v-2.2h-1.1V71h1.1v-2.2h.5V71h1.5v-2.4h-3.1v-.5h1.1v-1.6h.5v1.6h1.5V66h-3.1v-.4h-.4c0-.2.1-1.3 1-1.3.5 0 .8.6.8.6s.2-.6.9-.6c.6 0 1 .7 1 .7s.3-.7.9-.7c.6 0 .9.6.9.6s.1-.6.8-.6c.7 0 .8 1.3.8 1.3h-.4v.3h-2.7v7.6z" fill="#0872B9"/>
  <path d="M51.3 64.6s.4-.7 1-.7h4.4c.3 0 .9.6.9.8l-.8-.3H52l-.7.2zm55.4 19.7c-.4 0-.6.8-.6.8h1.1c.1-.2-.1-.8-.5-.8zm1.7-.1c-.6 0-.7.6-.7.9h1.4c.1 0-.1-.9-.7-.9z" fill="#0872B9"/>
  <circle cx="109.4" cy="82.6" r=".9" fill="#0872B9"/>
  <path d="M111.9 84.2c-.4 0-.5.9-.5.9h.9c.1 0 .1-.9-.4-.9zm-1.6 0c-.6 0-.7.9-.7.9h1.3c.1 0 0-.9-.6-.9zm2.5 3.9h-1.3v2.4h.4l.9-1.5v-.9zm-1.3 3.3l.3-.6h-.3v.6z" fill="#0872B9"/>
  <path d="M109.3 79.9c-3.8 0-4.6 2.5-4.6 2.9V96h4c.2-.2.5-.4.7-.6 0 0-.1 0-.1-.1-.3-.3-.3-.8-.3-.8s.1-.4.4-.4c.3 0 .4.3.4.3s.2-.1.2-.4c0-.3-.5-.3-.5-.3l-.5.3s-.5.3-.5.9c0 .6.4.8.4.8h-.3c-.2 0-.5-.4-.5-.4s-.1-.5-.3-.4c-.1.3.1.8.1.8H106v-1.9h3.6s.1 0 .3.2l.2.2c.2-.4.5-.9.7-1.3v-2h-.7v-.3h.7v-2.4h-.6v-.5h.6V86h.6v1.7h1.4v-4.5c0-.3-.9-2.2-3.6-2.2s-3.6 1.9-3.6 2.2v12.4h-.5V83c0-.2.7-2.5 4.1-2.5 3.3 0 4.1 2.3 4.1 2.6v4.7c.3-.4.4-.8.6-1.2v-3.8c0-.4-.9-2.9-4.6-2.9zm.1 1.4c.7 0 1.2.5 1.2 1.2s-.5 1.2-1.2 1.2-1.2-.5-1.2-1.2c-.1-.6.5-1.2 1.2-1.2zm-2.7 2.6c.5 0 .8.6.8.6s.2-.6.9-.6c.6 0 1 .7 1 .7s.3-.7.9-.7c.6 0 .9.6.9.6s.1-.6.8-.6c.7 0 .8 1.3.8 1.3h-.4v.3h-2.7V93h-.5v-2.2h-1.5V93h-.5v-2.2h-1.1v-.3h1.1v-2.2h.5v2.2h1.5v-2.4h-3.1v-.5h1.1V86h.5v1.6h1.5v-2.2h-3.1V85h-.4s.1-1.1 1-1.1z" fill="#0872B9"/>
  <path d="M106.2 84.1s.4-.7 1-.7h4.4c.3 0 .9.6.9.8l-.8-.3h-4.8l-.7.2zm.5-19.3c-.4 0-.6.8-.6.8h1.1c.1-.2-.1-.8-.5-.8zm1.7-.1c-.6 0-.7.6-.7.9h1.4c.1 0-.1-.9-.7-.9z" fill="#0872B9"/>
  <circle cx="109.4" cy="63.1" r=".9" fill="#0872B9"/>
  <path d="M111.9 64.7c-.4 0-.5.9-.5.9h.9c.1 0 .1-.9-.4-.9zm-1.6 0c-.6 0-.7.9-.7.9h1.3c.1 0 0-.9-.6-.9zm1.2 6.3h1.3v-2.4h-1.3V71z" fill="#0872B9"/>
  <path d="M109.3 60.4c-3.8 0-4.6 2.5-4.6 2.9v13.2h9.3V63.3c-.1-.4-1-2.9-4.7-2.9zm-.9 4c.6 0 1 .7 1 .7s.3-.7.9-.7c.6 0 .9.6.9.6s.1-.6.8-.6c.7 0 .8 1.3.8 1.3h-.4v.3h-2.7v7.6h-.5v-2.2h-1.5v2.2h-.5v-2.2h-1.1V71h1.1v-2.2h.5V71h1.5v-2.4h-3.1v-.5h1.1v-1.6h.5v1.6h1.5V66h-3.1v-.4h-.4c0-.2.1-1.3 1-1.3.5 0 .8.6.8.6s.2-.5.9-.5zm-.3-1.3c0-.7.5-1.2 1.2-1.2s1.2.5 1.2 1.2-.5 1.2-1.2 1.2c-.6 0-1.2-.6-1.2-1.2zm2.2 12.6c-.1.3-.6.5-.6.5s-.2 0-.5-.3-.3-.8-.3-.8.1-.4.4-.4c.3 0 .4.3.4.3s.2-.1.2-.4c0-.3-.5-.3-.5-.3l-.4.1s-.5.3-.5.9c0 .6.4.8.4.8h-.3c-.2 0-.5-.4-.5-.4s-.1-.5-.3-.4c-.1.3.1.8.1.8H106v-1.9h3.6s.1 0 .3.2c.6.4.5 1 .4 1.3zm2.1.5h-1.9s.3-.3.3-1-.3-1-.3-1h1.9v2zm.9 0h-.5v-4.8h-1.3v2.2h-.6v-2.2h-.7V71h.7v-2.4h-.6v-.5h.6v-1.7h.6v1.7h1.4v-4.5c0-.3-.9-2.2-3.6-2.2s-3.6 1.9-3.6 2.2V76h-.5V63.4c0-.2.7-2.5 4.1-2.5 3.3 0 4.1 2.3 4.1 2.6-.1.5-.1 12.7-.1 12.7z" fill="#0872B9"/>
  <path d="M106.2 64.6s.4-.7 1-.7h4.4c.3 0 .9.6.9.8l-.8-.3h-4.8l-.7.2zM27 84.3c-.4 0-.6.8-.6.8h1.1c.1-.2-.1-.8-.5-.8zm1.8-.1c-.6 0-.7.6-.7.9h1.4s-.2-.9-.7-.9z" fill="#0872B9"/>
  <circle cx="29.7" cy="82.6" r=".9" fill="#0872B9"/>
  <path d="M32.2 84.2c-.4 0-.5.9-.5.9h.9c.1 0 .1-.9-.4-.9zm-1.6 0c-.6 0-.7.9-.7.9h1.3c.1 0 0-.9-.6-.9zm1.2 6.3h1.3v-2.4h-1.3v2.4z" fill="#0872B9"/>
  <path d="M34.2 82.9c0-.5-.9-2.9-4.6-2.9-3.8 0-4.6 2.5-4.6 2.9v6.2c.2.4.4.9.6 1.3v-7.2c0-.2.7-2.5 4.1-2.5 3.3 0 4.1 2.3 4.1 2.6v12.5h-.5V91H32v2h-.6v-2.2h-.7v-.3h.7v-2.4h-.6v-.5h.6v-1.7h.6v1.7h1.4v-4.5c0-.3-.9-2.2-3.6-2.2s-3.6 1.9-3.6 2.2v8.1c.4.8.9 1.7 1.4 2.5H30s.1 0 .3.2c.5.4.3 1 .2 1.3-.1.3-.6.5-.6.5s-.2 0-.5-.3-.3-.8-.3-.8.1-.4.4-.4c.3 0 .4.3.4.3s.2-.1.2-.4c0-.3-.5-.3-.5-.3l-.3.2s-.5.3-.5.9c0 .6.4.8.4.8h-.3c-.2 0-.5-.4-.5-.4s-.1-.5-.3-.4l.9 1.2h5.1c.1 0 .1-12.7.1-13.2zm-4.5-1.6c.7 0 1.2.5 1.2 1.2s-.5 1.2-1.2 1.2-1.2-.5-1.2-1.2c-.1-.6.5-1.2 1.2-1.2zm.3 4.2V93h-.5v-2.2H28V93h-.5v-2.2h-1.1v-.3h1.1v-2.2h.5v2.2h1.5v-2.4h-3.1v-.5h1.1V86h.5v1.6h1.5v-2.2h-3.1V85H26c0-.2.1-1.3 1-1.3.5 0 .8.6.8.6s.2-.6.9-.6c.6 0 1 .7 1 .7s.3-.7.9-.7c.6 0 .9.6.9.6s.1-.6.8-.6c.7 0 .8 1.3.8 1.3h-.4v.3H30zm2.7 10.2h-1.9s.3-.3.3-1-.3-1-.3-1h1.9v2z" fill="#0872B9"/>
  <path d="M26.5 84.1s.4-.7 1-.7h4.4c.3 0 .9.6.9.8l-.8-.3h-4.8l-.7.2zm.4-19.3c-.4 0-.6.8-.6.8h1.1c.1-.2 0-.8-.5-.8zm1.8-.1c-.6 0-.7.6-.7.9h1.4s-.2-.9-.7-.9z" fill="#0872B9"/>
  <circle cx="29.6" cy="63" r=".9" fill="#0872B9"/>
  <path d="M32.2 64.7c-.4 0-.5.9-.5.9h.9s0-.9-.4-.9zm-1.7 0c-.6 0-.7.9-.7.9h1.3c.1 0 .1-.9-.6-.9zm1.2 6.3H33v-2.4h-1.3V71z" fill="#0872B9"/>
  <path d="M29.5 60.4c-3.8 0-4.6 2.5-4.6 2.9v13.2h9.3V63.3s-1-2.9-4.7-2.9zm-.9 3.9c.6 0 1 .7 1 .7s.3-.7.9-.7c.6 0 .9.6.9.6s.1-.6.8-.6c.7 0 .8 1.3.8 1.3h-.4v.3h-2.7v7.6h-.5v-2.2h-1.5v2.2h-.5v-2.2h-1.1V71h1.1v-2.2h.5V71h1.5v-2.4h-3.1v-.5h1.1v-1.6h.6v1.6h1.5V66h-3.1v-.4H26c0-.2.1-1.3 1-1.3.5 0 .8.6.8.6s.2-.6.8-.6zm-.2-1.3c0-.7.5-1.2 1.2-1.2s1.2.5 1.2 1.2-.5 1.2-1.2 1.2c-.7.1-1.2-.5-1.2-1.2zm2.1 12.7c-.1.3-.6.5-.6.5s-.2 0-.5-.3-.3-.8-.3-.8.1-.4.4-.4c.3 0 .4.3.4.3s.2-.1.2-.4c0-.3-.5-.3-.5-.3l-.4.1s-.5.3-.5.9c0 .6.4.8.4.8h-.3c-.2 0-.5-.4-.5-.4s-.1-.5-.3-.4c-.1.3.1.8.1.8h-1.9v-1.9h3.6s.1 0 .3.2c.7.4.5 1 .4 1.3zm2.1.5h-1.9s.3-.3.3-1-.3-1-.3-1h1.9v2zm.9-.1H33v-4.8h-1.3v2.2h-.6v-2.2h-.7V71h.7v-2.4h-.6v-.5h.6v-1.7h.6v1.7h1.4v-4.5c0-.3-.9-2.2-3.6-2.2s-3.6 1.9-3.6 2.2V76h-.5V63.4c0-.2.7-2.5 4.1-2.5 3.3 0 4.1 2.3 4.1 2.6-.1.5-.1 12.6-.1 12.6z" fill="#0872B9"/>
  <path d="M26.4 64.6s.4-.7 1-.7h4.4s.9.6.9.8l-.7-.3h-4.8l-.8.2zm6-12.1h-5.7v3.7h1.1v-.9h-.6V55h.6v-.9h-.7v-.4h.7v-.6h.6v3.1h.9v-.9h-.5V55h.5v-.9h-.5v-.4h.5V53h.6v3.2h1v-.9h-.4V55h.4v-.9h-.4v-.4h.5v-.6h.4v3.1h1v-.9H32V55h.4v-.9H32v-.4h.4" fill="#0872B9"/>
  <path d="M25.6 51.6v6.1h1.5v-.8h1.6v.8h1.7v-.8h1.5v.8h1.7v-6.1h-8zm1.1 5.9h-.6v-.6h.6v.6zm3.2 0h-.6v-.6h.6v.6zm3.1 0h-.5v-.6h.5v.6zm0-.8h-6.9V52H33v4.7zm24.2-7.6h-5.7v3.8h1.1V52h-.7v-.4h.7v-.9h-.7v-.3h.7v-.7h.6v3.2h.9v-1h-.6v-.3h.6v-.9h-.6v-.3h.6v-.7h.5v3.2h1.1V52h-.5v-.4h.5v-.9h-.5v-.3h.5v-.7h.5v3.2h1V52h-.4v-.4h.4v-.9h-.5v-.3h.5" fill="#0872B9"/>
  <path d="M50.4 48.3v6.1h1.5v-.8h1.6v.8h1.7v-.8h1.5v.8h1.7v-6.1h-8zm1.1 5.8h-.6v-.6h.6v.6zm3.2 0h-.6v-.6h.6v.6zm3 0h-.5v-.6h.5v.6zm0-.8h-6.9v-4.6h6.9v4.6zm14-4.2H66v3.8h1.2V52h-.7v-.4h.7v-.9h-.7v-.3h.7v-.7h.5v3.2h.9v-1h-.5v-.3h.6v-.9h-.6v-.3h.5v-.7h.6v3.2h1.1V52h-.5v-.4h.5v-.9h-.5v-.3h.5v-.7h.4v3.2h1V52h-.4v-.4h.4v-.9h-.4v-.3h.4" fill="#0872B9"/>
  <path d="M65 48.3v6.1h1.5v-.8h1.6v.8h1.7v-.8h1.5v.8H73v-6.1h-8zm1 5.8h-.6v-.6h.6v.6zm3.2 0h-.6v-.6h.6v.6zm3.1 0h-.5v-.6h.5v.6zm0-.8h-6.9v-4.6h6.9v4.6zM86 49.1h-5.7v3.8h1.1V52h-.6v-.4h.6v-.9h-.7v-.3h.7v-.7h.6v3.2h.9v-1h-.5v-.3h.6v-.9h-.6v-.3h.5v-.7h.6v3.2h1V52h-.4v-.4h.4v-.9h-.4v-.3h.5v-.7h.4v3.2h1V52h-.4v-.4h.4v-.9h-.4v-.3h.4" fill="#0872B9"/>
  <path d="M79.2 48.3v6.1h1.5v-.8h1.6v.8H84v-.8h1.5v.8h1.7v-6.1h-8zm1.1 5.8h-.6v-.6h.6v.6zm3.2 0h-.6v-.6h.6v.6zm3.1 0H86v-.6h.5v.6zm0-.8h-6.9v-4.6h6.9v4.6zm25.4-.9h-5.7v3.8h1.1v-.9h-.7v-.4h.7V54h-.7v-.3h.7V53h.6v3.2h.9v-1h-.6v-.3h.6V54h-.6v-.3h.6V53h.5v3.2h1.1v-.9h-.5v-.4h.5V54h-.5v-.3h.5V53h.5v3.2h1v-.9h-.4v-.4h.4V54h-.5v-.3h.5" fill="#0872B9"/>
  <path d="M105.2 51.6v6.1h1.5v-.8h1.6v.8h1.7v-.8h1.5v.8h1.7v-6.1h-8zm1.1 5.8h-.6v-.6h.6v.6zm3.2 0h-.6v-.6h.6v.6zm3 0h-.5v-.6h.5v.6zm.1-.8h-6.9V52h6.9v4.6zm-46 27.5c-.4 0-.6.8-.6.8h1.1c0-.2-.1-.8-.5-.8zm1.8-.1c-.6 0-.7.6-.7.9h1.4s-.2-.9-.7-.9z" fill="#0872B9"/>
  <circle cx="69.3" cy="82.3" r=".9" fill="#0872B9"/>
  <path d="M72 84c-.4 0-.5.9-.5.9h.9c.1 0 .1-.9-.4-.9zm-1.7 0c-.6 0-.7.9-.7.9H71s-.1-.9-.7-.9z" fill="#0872B9"/>
  <path d="M69.3 80.7c-2.7 0-3.8 2-3.8 2.3v1.9c.2-.5.3-1.3 1.2-1.3.5 0 .8.6.8.6s.2-.6.9-.6c.6 0 1 .7 1 .7s.3-.7.9-.7c.6 0 .9.6.9.6s.1-.6.8-.6c.7 0 .9.9.9.9l.1.5v-1.8c0-.3-.9-2.5-3.7-2.5zm0 2.9c-.7 0-1.2-.5-1.2-1.2s.5-1.2 1.2-1.2 1.2.5 1.2 1.2c0 .6-.5 1.2-1.2 1.2z" fill="#0872B9"/>
  <path d="M74 82.8c0-.5-1.1-3.1-4.8-3.1-4.2 0-4.7 2.8-4.7 3.3v18.5h9.6S74 83.4 74 82.8zm-.6 18.5H65V82.9c0-.2.9-2.5 4.2-2.5 3.3 0 4.2 2.3 4.2 2.6v18.3z" fill="#0872B9"/>
  <path d="M66 83.9s.6-.7 1.2-.7h4.4s1 .7 1 .8l-.9-.3h-4.8l-.9.2zm1.9 14.2v2.4h-1.3v.6h1.8v-3m3.1 0v2.4h-1.2v.6h1.8v-3" fill="#0872B9"/>
  <path d="M72.5 84.9v.3H66v-.3h-.5v16.6h.6v-5.3h2.7v5.3h1v-5.3h2.6v5.3h.6V84.9h-.5zm-3.7 10.5H66v-5.1h2.8v5.1zm0-5.9H66v-3.7h2.8v3.7zm3.7 5.9h-2.6v-5.1h2.6v5.1zm0-5.9h-2.6v-3.7h2.6v3.7z" fill="#0872B9"/>
  <path fill="#0872B9" d="M70.3 94.6h1.2v-2.4h.6v2.9h-1.8m-2.4-3h.5v3h-1.8v-.6h1.3m-1.3-5.8v.6h1.8v-3.1h-.5v2.5m3.6-2.4v2.4h-1.2v.6h1.8v-3m27.8 9.8v-.4h-26v.9h25.3v7.1h-2.5v-2.6h-.5v.3h-54v-.3h-.5v2.6h-2.4v-7.2h25.4v-.8H38.4v.3h-9.2l1.3 2.1h8v6.2h3.1v.6h7.9v-.6h38.9l.2.6h8v-.5h3.3v-6.2h7.1l1.6-2.1h-8.7zm-50.8 8.1h-6.9V102h6.9v2.2zm27.3-.5v.2H61.5v-.2H50l.2-.3h1.4v-.4H50l.3-.4h4.3v-.3H50l.5-.3h37.2l.5.3h-4.7v.4h4.3l.3.3h-1.7v.3H88l.2.3-11.8.1zm19.7.5H89V102h7.1v2.2z"/>
  <path fill="#0872B9" d="M42.8 102.5h6.1v1.2h-6.1zm46.5 0h6.1v1.3h-6.1zM45.4 75.7v-2.1h-.9v-1.2h.9v-1.8h-.5v1.2H40v-1.3h4.6v-2.1h.9v-1.6h-.6v1H40v-1h4.6v-1.7h.9v-1.8h-.6v1.1H40v-1.1h4.6v-1.8h.9v-2h-.6v1.4H40v-1.4h4.6v-2.1h.9v-1.8h-.6v1.2H40v-1.1h4.6v-1.9h.9v-2.1h-.6v1.5H40v-1.5h4.6V50h.9v-2h-.6v1.6H40v-1.7h5.3v-.3h-.7v-1.3H44v1h-4v-.9h-.7l-.1 29.3h-.8v1.6h7.1v.3h-6.2v18.9H46V77.2l.7-.4v-1.1h-1.3zm-5.5-14.3H44v1.2h-4.1v-1.2zm0-3.9H44v1.4h-4.1v-1.4zm0-3.7H44V55h-4.1v-1.2zm0-3.8H44v1.2h-4.1V50zm4.9 45.3h-5.2V78.2h5.2v17.1zm-4.9-30.2H44v1.1h-4.1v-1.1zm-.4 3.3H44v1.4h-4.5v-1.4zm0 3.9H44v1.2h-4.5v-1.2zm0 1.9h5.3v1.5h-5.3v-1.5zm6.7 2.5h-7.4v-.6h7.4v.6zm45.3-1v1.1l.7.4v19.3h7V77.6h-6.4v-.3h7.4v-1.6h-.9V46.4h-.8v.9h-4.1v-1h-.6v1.3H93v.3h5.3v1.7h-4.9V48h-.6v2.1h.9v1.7h4.6v1.5h-4.9v-1.5h-.6v2.1h.9v1.9h4.6v1.1h-4.9v-1.2h-.6v1.8h.9v2.1h4.6V61h-4.9v-1.4h-.6v2h.9v1.8h4.6v1.1h-4.9v-1.1h-.6v1.8h.9v1.7h4.6v1h-4.9v-1h-.6v1.6h.9v2.1h4.6v1.3h-4.9v-1.2h-.5v1.8h.9v1.2h-.9v2.1h-1.4zm6.8-13h-4.1v-1.2h4.1v1.2zm0-3.8h-4.1v-1.4h4.1v1.4zm0-3.8h-4.1v-1.3h4.1v1.3zm0-3.9h-4.1V50h4.1v1.2zm-4.9 27h5.2v17.1h-5.2V78.2zm4.9-11.9h-4.1v-1.1h4.1v1.1zm.3 3.5h-4.5v-1.4h4.5v1.4zm0 3.8h-4.5v-1.2h4.5v1.2zm0 2.1h-5.3v-1.5h5.3v1.5zm-6.6.5h7.4v.6H92v-.6z"/>
  <path fill="#0872B9" d="M21.1 77.2h18.2v1.7H21.4m16.9-2.4H21.1v.4h17.3m78.2.3H99.2v1.7h17.1M100 76.4h16.6v.5H100zm-51.5-.9v1.1l.6-.6m1.4.6v-1.1l-.6.5m.1-1h-1.1l.6.6m-.6 1.4H50l-.6-.6m1.4-.9v1.1l.6-.6m1.4.6v-1.1l-.6.5m.1-1h-1.1l.6.6m-.6 1.4h1.1l-.5-.6m1.3-.9v1.1l.6-.6m1.4.6v-1.1l-.6.5m.2-1h-1.2l.6.6m-.6 1.4h1.2l-.6-.6m1.4-.9v1.1l.5-.6m1.4.6v-1.1l-.6.5m.2-1h-1.1l.5.6m-.5 1.4H57l-.6-.6m1.4-.9v1.1l.5-.6m1.4.6v-1.1l-.5.6m.1-1.1h-1.1l.5.6m-.5 1.4h1.1l-.6-.5m1.4-1v1.1l.6-.6m1.3.6v-1.1l-.5.6m.1-1.1h-1.1l.6.6m-.6 1.4h1.1l-.6-.5m1.4-1v1.1l.6-.6m1.4.6v-1.1l-.6.6m.1-1.1h-1.1l.6.6m-.6 1.4h1.1l-.5-.5m1.3-1v1.1l.6-.6m1.4.6v-1.1l-.6.6m.1-1.1h-1.1l.6.6m-.6 1.4h1.1l-.5-.5m1.3-1v1.1l.6-.5m1.4.5v-1.1l-.6.6m.2-1.1h-1.2l.6.6m-.6 1.5h1.2l-.6-.6m1.4-1v1.1l.5-.6m1.4.6v-1.1l-.6.5m.2-1h-1.1l.5.6m-.5 1.4h1.1l-.6-.6m1.4-.9v1.1l.6-.6m1.3.6v-1.1l-.5.5m.1-1h-1.1l.5.6m-.5 1.4h1.1l-.6-.6m1.4-.9v1.1l.6-.6m1.4.6v-1.1l-.6.5m.1-1h-1.1l.6.6m-.6 1.4h1.1l-.6-.6m1.4-.9v1.1l.6-.6m1.4.6v-1.1l-.6.5m.1-1h-1.1l.6.6m-.6 1.4h1.1l-.5-.6m1.3-.9v1.1l.6-.6m1.4.6v-1.1l-.6.6m.2-1.1H79l.6.6M79 77h1.2l-.6-.5m1.3-1v1.1l.6-.6m1.4.6v-1.1l-.6.6m.2-1.1h-1.2l.6.6m-.6 1.4h1.2l-.6-.5m1.4-1v1.1l.5-.6m1.4.6v-1.1l-.5.6m.1-1.1h-1.1l.5.6m-.5 1.4h1.1l-.6-.5m1.4-1v1.1l.6-.6m1.3.6v-1.1l-.5.6m.1-1.1H86l.6.6M86 77h1.1l-.6-.5m1.4-1v1.1l.6-.6m1.4.6v-1.1l-.6.5m.1-1h-1.1l.6.6m-.6 1.4h1.1l-.6-.6"/>
  <path d="M90.7 77.1v-3.5h-1.1v.2H76.8v-.2h-1.5v.2H63v-.2h-1.5v.2H48.8v-.2h-1.2V77h-.4v.7l.4.2v.9l.4.3h.9l1.5 1.2H88l1.3-1.2h1l.4-.4v-.9l.4-.1V77h-.4zm-42.2 1.2H48v-.4h.6v.4zm39.7 1.2H50V79h38.2v.5zm-26.4-1.2v-.5h.7v.5h-.7zm14 0v-.5h.7v.5h-.7zm14.5 0h-.6v-.5h.6v.5zm.3-.7h-43v-.4l.4-.2v-2.9h.6v.3h13.3v-.3h.6v.3h13.3v-.3h.7v.3h13.3v-.3h.6v2.8l.3.3v.4zm-65.4-31h14v.4h-14zm-.4 1h14.6v1.5H24.2m-.3.4h15.5v.6H23.6m90.4-.6H98.5v.6h15.8m-1.2-2.5H98.5v1.5h15.2m-15.1-2.5h14v.4h-14z" fill="#0872B9"/>
  <path d="M38.1 42.4h-1.2l.3 1.1 2 2.4v1.3h.7v-.8h58.5v.3h.8V46l2.2-2.4.2-1.1H38.1zm60.3 3.4H39.9v-.6h58.5v.6zm2.1-2.4H38l-.1-.4h62.7l-.1.4zM95 37.5l-26.2-7.8-25.5 7.8h-4.1l.7 1.6H41v3.3h.8v-3.3h3l24-7 24.6 7h3.2v3.3h.8v-3.3h1l.7-1.6H95zm-1.3.8l-24.9-7.2-24.3 7.2v-.7l24.3-7.2 24.9 7.2v.7z" fill="#0872B9"/>
  <path fill="none" stroke="#0872B9" stroke-width=".25" stroke-miterlimit="10" d="M93.4 80.9H99M93.1 84H99m-5.9 3h5.7M93 90h5.8m-5.9 2.9H99m-59.6-12H45M39.3 84h5.8m-5.7 3h5.7m-5.6 3h5.9m-6 2.9h6.1"/>
  <path d="M68.8 41.1s-1.3-.6-1.7-.8c-.4-.2-.4-.7-.4-.7v-4.5h4.2v4.5s0 .4-.4.7c-.4.2-1.7.8-1.7.8z" clip-rule="evenodd" fill="none" stroke="#0872B9" stroke-width=".25" stroke-miterlimit="22.926"/>
  <path d="M69.5 37c-.1.8-.1 1.1-.1 1.1h.1s.3.1.3.2-.2.3-.3.3h-.1s-.4-.5-.4-1.4v-1.3s0-.3-.2-.5c-.2.2-.2.5-.2.5v1.3c0 .8-.4 1.4-.4 1.4h-.1c-.1 0-.3-.1-.3-.3 0-.2.2-.2.3-.2h.1s0-.4-.1-1.1c-.2-.9-.8-1.1-.8-1.1v3.7h.9s.1.5.5.8l.2.2.2-.2c.5-.3.5-.8.5-.8h.9v-3.7c-.2 0-.8.3-1 1.1zm-2-.6s.2.3.3.6c0 .3.1.9.1.9s-.2.1-.3.3h-.1v-1.8zm.6 2.9h-.6v-.8h.1c.1.3.4.4.5.4v.4zm.5.8c-.2-.2-.3-.5-.3-.5h.3v.5zm-.3-.8V39c.3 0 .3.3.3.3h-.3zm.5-.3s-.2-.2-.3-.2c.2-.3.3-.7.3-.7s.1.4.3.7c-.1 0-.3.2-.3.2zm.1 1.1v-.5h.3s-.1.3-.3.5zm0-.8s0-.3.3-.3v.3h-.3zm1.1 0h-.6s0-.2-.1-.4c.1 0 .4-.1.5-.4h.2v.8zm-.1-1c-.1-.2-.3-.3-.3-.3s.1-.6.1-.9c.1-.3.3-.6.3-.6v1.9c0-.1-.1-.1-.1-.1z" fill-rule="evenodd" clip-rule="evenodd" fill="#0872B9"/>
  <path d="M49.8 115.4c-19.3-7.8-31.9-26.5-31.9-47.3 0-28.2 22.8-51 51-51s51 22.8 51 51c0 21.1-13 40.1-32.7 47.6" fill="none" stroke="#3298CB" stroke-miterlimit="22.926"/>
  <path d="M50.6 113.1c-18.4-7.4-30.5-25.2-30.5-44.9 0-26.8 21.8-48.4 48.7-48.4 26.9 0 48.7 21.7 48.7 48.4 0 20.1-12.4 38-31.3 45.2" fill="none" stroke="#3298CB" stroke-width=".5" stroke-miterlimit="22.926"/>
  <path d="M57.1 112.3v8.8c0 .7 0 1.1.1 1.3.1.2.2.3.4.4.2.1.5.2.9.2h.2v.3H53v-.3h.3c.5 0 .8-.1 1-.2s.3-.3.4-.4.1-.6.1-1.3v-5.6c0-.5 0-.8-.1-.9 0-.1-.1-.2-.3-.3-.1-.1-.3-.1-.4-.1-.3 0-.6.1-1 .3l-.1-.3 3.9-1.8h.3zm8.3 4.9c.8.6 1.3 1.1 1.6 1.5s.4 1 .4 1.6c0 .9-.3 1.6-1 2.2s-1.5.9-2.6.9-1.9-.3-2.4-.8c-.6-.5-.9-1.2-.9-1.9 0-.6.2-1.1.5-1.5s.9-.8 1.7-1.2c-.8-.6-1.4-1.2-1.6-1.6-.2-.4-.4-.9-.4-1.4 0-.7.3-1.3.9-1.9.6-.5 1.4-.8 2.5-.8 1 0 1.8.2 2.4.7s.8 1.1.8 1.7c0 .5-.1 1-.4 1.3s-.9.9-1.5 1.2zm-2.2 1.2c-.2.1-.3.3-.3.4-.1.2-.2.5-.3.8s-.1.7-.1 1.1c0 .5.1.9.2 1.2.1.3.3.6.5.7.2.1.5.2.7.2.4 0 .7-.1 1-.4.3-.3.4-.7.4-1.2 0-.9-.7-1.8-2.1-2.8zm1.6-1.6c.2-.3.3-.6.4-.9.1-.3.1-.7.1-1.1 0-.7-.1-1.2-.4-1.6-.2-.3-.5-.4-.9-.4s-.7.1-.9.4c-.2.3-.4.6-.4 1s.1.8.4 1.2c.3.4.9.8 1.7 1.4zm10.7-4.5v.2c-1 .2-1.7.6-2.3.9-.6.4-1 .8-1.4 1.4s-.6 1.2-.8 2c.2-.2.4-.3.6-.3.3-.1.7-.2 1-.2.8 0 1.5.3 2 .9.5.6.8 1.4.8 2.4 0 .7-.1 1.4-.4 1.9-.3.6-.7 1-1.2 1.4-.5.3-1.1.5-1.7.5-.7 0-1.3-.2-1.8-.5s-1-.9-1.3-1.6c-.3-.7-.5-1.5-.5-2.3 0-1.2.3-2.3.9-3.4.6-1 1.4-1.9 2.4-2.5 1.1-.5 2.3-.8 3.7-.8zm-4.5 5.2c0 .7-.1 1.3-.1 1.6 0 .7.1 1.4.2 2.1s.3 1.2.6 1.4c.2.2.4.3.6.3.2 0 .5-.1.6-.4.2-.3.3-.9.3-1.7 0-1.5-.2-2.5-.5-3-.2-.4-.5-.5-.9-.5-.2-.1-.5 0-.8.2zm7.5-5h5l-.8 2h-4.2l-.4 1.1c1.8.1 3.2.5 4.2 1.4.8.7 1.2 1.6 1.2 2.6 0 .7-.2 1.3-.6 1.9-.4.6-.9 1.1-1.6 1.5-.7.3-1.4.5-2.2.5-.9 0-1.5-.2-2-.5-.3-.2-.5-.5-.5-.8 0-.2.1-.4.3-.6.2-.2.4-.3.6-.3.2 0 .4 0 .6.1.2.1.6.3 1.1.7.3.2.6.4.8.5.2.1.3.1.6.1.4 0 .8-.2 1.1-.5.3-.3.5-.7.5-1.1 0-.9-.5-1.7-1.4-2.3-.9-.6-2.1-.9-3.5-.9h-.6l1.8-5.4z" fill="#3298CB"/>
  <g fill="#3298CB">
    <path d="M61.2 56.6c.1 0 .2 0 .3.1.1.1.1.2.1.3 0 .1 0 .2-.1.3-.1.1-.2.2-.3.2-.1 0-.3 0-.3-.1-.1-.1-.1-.2-.1-.3 0-.1 0-.2.1-.3.1-.1.2-.2.3-.2zm0 .1c-.1 0-.1 0-.2.1v.3c0 .1 0 .2.1.3l.1.1h.1l.1-.1V57c0-.1 0-.1-.1-.1s0-.2-.1-.2zm.6.7c.1 0 .1 0 .1-.1v-.7h-.1.6c.1 0 .1.1.2.1 0 .1.1.1.1.2v.2s0 .1-.1.1l-.1.1h-.7zm.3-.7v.7c.1 0 .1 0 .1-.1s.1-.2.1-.3v-.2l-.1-.1h-.1z"/>
    <path d="M63 56.7v.3h.1v-.1.3l-.1-.1h-.1v.3c.1 0 .1 0 .2-.1s.1-.1.1-.2v.3h-.7.1v-.7h-.1.7v.1l-.1-.1H63zm1.1-.1v.3c0-.1 0-.1-.1-.2l-.1-.1h-.1v.1l.1.1s.1 0 .1.1c.1 0 .2.1.2.1v.1c0 .1 0 .1-.1.2s-.1.1-.2.1h-.2v-.3c0 .1.1.1.1.2 0 0 .1.1.2.1h.1v-.3s-.1 0-.1-.1c-.1 0-.1-.1-.2-.1s-.1-.1-.1-.1v-.1c0-.1 0-.1.1-.2 0 0 .1-.1.2-.1h.2s-.2.3-.1.2c-.1.1-.1.1 0 0 0 .1 0 0 0 0zm.7 0v.3c0-.1 0-.1-.1-.2l-.1-.1h-.1v.1l.1.1s.1 0 .1.1c.1 0 .2.1.2.1v.1c0 .1 0 .1-.1.2s-.1.1-.2.1h-.2v-.3c0 .1.1.1.1.2 0 0 .1.1.2.1h.1v-.3s-.1 0-.1-.1c-.1 0-.1-.1-.2-.1s-.1-.1-.1-.1v-.1c0-.1 0-.1.1-.2 0 0 .1-.1.2-.1h.2s-.2.3-.1.2c0 .1 0 .1 0 0 0 .1 0 0 0 0zm.7.6h-.3v.2h.1-.3.1s0-.1.1-.1l.3-.6.3.7c0 .1 0 .1.1.1h.1-.4.1c-.2-.2-.2-.2-.2-.3zm0 0l-.1-.3-.1.3h.2zm1.9.2H67h.1v-.7H67h.3v.7h.1c-.1 0-.1 0 0 0zm.2-.2s0 .1 0 0c.1.1.1.1 0 0 .1.1.1.1.1.2s0 0-.1 0h-.1l.1-.2c-.1.1-.1.1 0 0-.1.1 0 0 0 0zm.6.2h-.4.1v-.7h-.1.3v.7h.1zm.3-.2s0 .1 0 0c.1.1.1.1 0 0 .1.1.1.1.1.2s0 0-.1 0h-.1l.1-.2c-.1.1-.1.1 0 0-.1.1 0 0 0 0zm.8 0l.2-.5h.2v.7h.1-.4.1v-.7l-.3.7-.3-.7v.7h.1-.3v-.7h-.1.4l.3.5z"/>
    <path d="M70.2 56.7v.3h.1v-.1.3l-.1-.1h-.1v.3c.1 0 .1 0 .2-.1s.1-.1.1-.2v.3h-.7.1v-.7h-.1.7v.1l-.1-.1h-.1zm1.3-.1v.3c0-.1 0-.1-.1-.2 0 0-.1-.1-.2-.1h-.1l-.1.1v.4c0 .1 0 .1.1.1h.2l.1-.1v.1l-.1.1h-.2c-.1 0-.2 0-.2-.1-.1 0-.1-.1-.2-.1 0-.1-.1-.1-.1-.2s0-.1.1-.2c0-.1.1-.1.2-.2.1 0 .1-.1.2-.1h.2c.1.3.2.3.2.2 0 .1 0 .1 0 0zm.5.4v.3h.1-.4.1v-.7h-.1.3v.4l.3-.1v-.3h-.1.3v.7h.1-.4.1V57H72zm1-.4l.4.5v-.4h-.1.2v.8l-.5-.7v.6h.1-.3.1v-.7h-.1.2zm1 .8h-.4.1v-.7h-.1.3v.7h.1zm.6-.5l.3.3.1.1h.1-.4.1l-.1-.1-.2-.2v.3h.1-.4.1v-.7h-.1.3v.4l.3-.2.1-.1h-.1.1s-.1 0-.1.1l-.2.1zm1-.3c.1 0 .2 0 .3.1.1.1.1.2.1.3 0 .1 0 .2-.1.3-.1.1-.2.2-.3.2-.1 0-.3 0-.3-.1-.1-.1-.1-.2-.1-.3 0-.1 0-.2.1-.3.1-.1.2-.2.3-.2zm0 .1c-.1 0-.1 0-.2.1v.3c0 .1 0 .2.1.3l.1.1h.1l.1-.1V57c0-.1 0-.1-.1-.1s-.1-.2-.1-.2zm1.4-.1c-.1.1-.1.1 0 0l-.2.2-.3.6-.3-.6c0-.1-.1-.1-.1-.1H76h.3v.1l.2.4.2-.4v-.1h-.1.4zm-15.4 1.5l.4.5v-.4h-.1.2v.8l-.5-.7v.6h.1-.3.1v-.7h-.1.2zm1.1.5h-.3v.2h.1-.3.1s0-.1.1-.1l.3-.6.3.7c0 .1 0 .1.1.1h.1-.4.1c-.2-.1-.2-.1-.2-.3zm0 0l-.1-.3-.1.3h.2zm1.1-.5v.1l-.1-.1h-.2v.7h.1-.4.1v-.7h-.2l-.1.1V58h.8zm.5.7h-.4.1v-.7h-.1.3v.7h.1zm.6-.7c.1 0 .2 0 .3.1.1.1.1.2.1.3 0 .1 0 .2-.1.3-.1.1-.2.2-.3.2-.1 0-.3 0-.3-.1-.1-.1-.1-.2-.1-.3 0-.1 0-.2.1-.3.1-.2.2-.2.3-.2zm0 0c-.1 0-.1 0-.2.1v.3c0 .1 0 .2.1.3l.1.1h.1l.1-.1v-.4c0-.1 0-.1-.1-.1s-.1-.2-.1-.2zm.8 0l.4.5v-.4H66h.2v.8l-.5-.7v.6h.1-.3.1v-.7h-.1.2zm1.1.5h-.3v.2h.1-.3.1s0-.1.1-.1l.3-.6.3.7c0 .1 0 .1.1.1h.1-.4.1c-.1-.1-.1-.1-.2-.3zm0 0l-.1-.3-.1.3h.2zm1.2 0v.3h-.7.1v-.7h-.1.3v.7h.3s.1 0 .1-.1v-.2zm.8-.5h.3v.6l.1.1h.2s.1 0 .1-.1v-.6h-.1.2v.6s0 .1-.1.1c0 0-.1.1-.2.1h-.2c-.1 0-.1-.1-.1-.1v-.6c-.1 0-.1-.1-.2-.1.1 0 .1 0 0 0 .1 0 0 0 0 0zm1.2 0l.4.5v-.4h-.1.2v.8l-.5-.7v.6h.1-.3.1v-.7h-.1.2zm1.1.7h-.4.1v-.7h-.1.3v.7h.1c-.1 0-.1 0 0 0z"/>
    <path d="M72 58.1s-.1 0 0 0l-.2.2-.3.6-.3-.6c0-.1-.1-.1-.1-.1H71h.3v.1l.2.4.2-.4v-.1h-.1.4z"/>
    <path d="M72.4 58.1v.3h.1v-.1.3l-.1-.1h-.1v.3c.1 0 .1 0 .2-.1s.1-.1.1-.2v.3h-.7.1v-.7h-.1.7v.1l-.1-.1h-.1zm.9.4v.3h.1-.4.1v-.7H73h.6s.1 0 .1.1v.1c0 .1 0 .1-.1.1 0 0-.1 0-.1.1l.2.3s0 .1.1.1h.1-.3l-.3-.4zm0-.4v.3h.1l.1-.1v-.2h-.2zm1.1 0v.3c0-.1 0-.1-.1-.2l-.1-.1h-.1v.1l.1.1s.1 0 .1.1c.1 0 .2.1.2.1v.1c0 .1 0 .1-.1.2s-.1.1-.2.1H74v-.3c0 .1.1.1.1.2 0 0 .1.1.2.1h.1v-.3s-.1 0-.1-.1c-.1 0-.1-.1-.2-.1H74v-.1c0-.1 0-.1.1-.2 0 0 .1-.1.2-.1h.2l-.1.1zm.6.7h-.4.1v-.7h-.1.3v.7h.1zm.9-.7v.1l-.1-.1h-.2v.7h.1-.4.1v-.7h-.2l-.1.1V58h.8z"/>
    <path d="M76.8 58.1l-.2.2-.2.3v.3h.1-.4.1v-.3l-.2-.3c0-.1-.1-.1-.1-.1h-.1.4v.1l.1.3.1-.2c0-.1.1-.1.1-.1h-.1.4z"/>
  </g>
  <path d="M83.8 56v3.7H54.4V56h29.4m.2-.3H54.1v4.2H84v-4.2z" fill="#0872B9"/>
  <ellipse cx="69" cy="67.8" rx="62.8" ry="62.8" fill="none" stroke="#3298CB" stroke-width="2" stroke-miterlimit="10"/>
  <path d="M163.3 33.1c3.6 0 6.7 1.4 9.4 4.1 2.6 2.7 4 6.1 4 10.2 0 4.2-1.3 7.7-4 10.5s-5.9 4.2-9.7 4.2c-3.8 0-7-1.4-9.6-4.1-2.6-2.7-3.9-6.2-3.9-10.5 0-4.4 1.5-8 4.5-10.8 2.6-2.3 5.7-3.6 9.3-3.6zm-.4 1.5c-2.5 0-4.5.9-6 2.8-1.9 2.3-2.8 5.6-2.8 10.1s1 8 2.9 10.5c1.5 1.9 3.4 2.8 5.9 2.8 2.6 0 4.8-1 6.5-3 1.7-2 2.5-5.2 2.5-9.6 0-4.7-.9-8.3-2.8-10.6-1.4-2-3.5-3-6.2-3zm29.9 24.8c-.9 1-1.8 1.6-2.7 2.1-.9.4-1.8.6-2.8.6-2 0-3.8-.9-5.4-2.6s-2.3-3.9-2.3-6.6c0-2.7.8-5.1 2.5-7.4 1.7-2.2 3.9-3.3 6.5-3.3 1.6 0 3 .5 4.1 1.6v-3.5c0-2.1-.1-3.5-.2-3.9-.1-.5-.3-.8-.5-1-.2-.2-.5-.3-.8-.3-.4 0-.8.1-1.4.3l-.3-.7 5.6-2.3h.9v21.7c0 2.2.1 3.5.2 4s.3.8.5 1c.2.2.5.3.8.3.4 0 .9-.1 1.5-.3l.2.7-5.6 2.3h-.9v-2.7zm0-1.4v-9.7c-.1-.9-.3-1.8-.7-2.5-.4-.8-1-1.3-1.6-1.7-.7-.4-1.3-.6-2-.6-1.2 0-2.3.5-3.2 1.6-1.2 1.4-1.9 3.5-1.9 6.2 0 2.8.6 4.9 1.8 6.3s2.5 2.2 4 2.2c1.2 0 2.4-.6 3.6-1.8zm10.9-8.2c0 2.8.7 5 2 6.5 1.4 1.6 3 2.4 4.8 2.4 1.2 0 2.3-.3 3.2-1 .9-.7 1.7-1.8 2.3-3.5l.6.4c-.3 1.9-1.1 3.6-2.5 5.1-1.4 1.5-3.1 2.3-5.2 2.3-2.3 0-4.2-.9-5.8-2.6-1.6-1.8-2.4-4.1-2.4-7.1 0-3.2.8-5.7 2.5-7.5 1.6-1.8 3.7-2.7 6.2-2.7 2.1 0 3.8.7 5.2 2.1 1.3 1.4 2 3.2 2 5.6h-12.9zm0-1.1h8.7c-.1-1.2-.2-2-.4-2.5-.3-.8-.8-1.4-1.5-1.8-.7-.4-1.4-.7-2.1-.7-1.1 0-2.1.4-3 1.3-1.1.9-1.6 2.1-1.7 3.7zm27.5-6.5v6.4h-.7c-.5-2-1.2-3.4-2-4.1-.8-.7-1.8-1.1-3.1-1.1-1 0-1.7.3-2.3.8-.6.5-.9 1.1-.9 1.7 0 .8.2 1.4.7 2 .4.6 1.3 1.2 2.6 1.8l3 1.5c2.8 1.4 4.2 3.1 4.2 5.3 0 1.7-.6 3.1-1.9 4.1-1.3 1-2.7 1.6-4.3 1.6-1.1 0-2.5-.2-3.9-.6-.4-.1-.8-.2-1.1-.2-.3 0-.6.2-.7.5h-.7v-6.7h.7c.4 1.9 1.1 3.3 2.2 4.3s2.3 1.5 3.6 1.5c.9 0 1.7-.3 2.3-.8.6-.6.9-1.2.9-2 0-.9-.3-1.7-1-2.4s-2-1.5-4-2.4c-2-1-3.3-1.9-3.9-2.7-.6-.8-.9-1.8-.9-2.9 0-1.5.5-2.8 1.6-3.9 1.1-1 2.4-1.6 4.1-1.6.7 0 1.6.2 2.7.5.7.2 1.2.3 1.4.3.2 0 .4 0 .5-.1.1-.1.3-.3.4-.6h.5zm16.3 0v6.4h-.7c-.5-2-1.2-3.4-2-4.1-.8-.7-1.8-1.1-3.1-1.1-1 0-1.7.3-2.3.8-.6.5-.9 1.1-.9 1.7 0 .8.2 1.4.7 2 .4.6 1.3 1.2 2.6 1.8l3 1.5c2.8 1.4 4.2 3.1 4.2 5.3 0 1.7-.6 3.1-1.9 4.1-1.3 1-2.7 1.6-4.3 1.6-1.1 0-2.5-.2-3.9-.6-.4-.1-.8-.2-1.1-.2-.3 0-.6.2-.7.5h-.7v-6.7h.7c.4 1.9 1.1 3.3 2.2 4.3s2.3 1.5 3.6 1.5c.9 0 1.7-.3 2.3-.8.6-.6.9-1.2.9-2 0-.9-.3-1.7-1-2.4s-2-1.5-4-2.4c-2-1-3.3-1.9-3.9-2.7-.6-.8-.9-1.8-.9-2.9 0-1.5.5-2.8 1.6-3.9 1.1-1 2.4-1.6 4.1-1.6.7 0 1.6.2 2.7.5.7.2 1.2.3 1.4.3.2 0 .4 0 .5-.1.1-.1.3-.3.4-.6h.5zm14.8 16.6c-1.9 1.5-3.1 2.3-3.6 2.6-.7.3-1.5.5-2.4.5-1.3 0-2.4-.4-3.2-1.3-.8-.9-1.3-2.1-1.3-3.5 0-.9.2-1.7.6-2.4.6-.9 1.5-1.8 2.9-2.6s3.7-1.8 6.9-3v-.7c0-1.9-.3-3.1-.9-3.8-.6-.7-1.5-1-2.6-1-.9 0-1.5.2-2 .7-.5.5-.8 1-.8 1.6v1.2c0 .6-.2 1.1-.5 1.5-.3.3-.7.5-1.3.5-.5 0-.9-.2-1.2-.5-.3-.4-.5-.8-.5-1.5 0-1.2.6-2.3 1.8-3.2s2.9-1.5 5.1-1.5c1.7 0 3 .3 4.1.8.8.4 1.4 1.1 1.8 2 .2.6.4 1.8.4 3.6V55c0 1.8 0 2.9.1 3.3s.2.7.3.8c.2.1.3.2.5.2s.4 0 .6-.1c.3-.2.8-.7 1.7-1.5v1.1c-1.5 2-3 3.1-4.4 3.1-.7 0-1.2-.2-1.6-.7-.3-.5-.5-1.3-.5-2.4zm0-1.3v-7.1c-2.1.8-3.4 1.4-4 1.7-1.1.6-1.8 1.2-2.3 1.9-.5.7-.7 1.4-.7 2.1 0 1 .3 1.8.9 2.4.6.6 1.3 1 2 1 1.1 0 2.4-.6 4.1-2zm30.1 3.3v.8h-11.9v-.8h1c1.1 0 2-.3 2.5-1 .3-.4.5-1.5.5-3.2V38.7c0-1.4-.1-2.3-.3-2.8-.1-.3-.4-.6-.8-.9-.6-.3-1.2-.5-1.9-.5h-1v-.8h11.9v.8h-1c-1.1 0-2 .3-2.5 1-.3.4-.5 1.5-.5 3.2v17.9c0 1.4.1 2.3.3 2.8.1.3.4.6.9.9.6.3 1.2.5 1.9.5h.9zm6.2-3.3c.6 0 1.2.2 1.6.7.4.4.7 1 .7 1.6 0 .6-.2 1.2-.7 1.6-.4.4-1 .7-1.6.7-.6 0-1.2-.2-1.6-.7-.4-.4-.7-1-.7-1.6 0-.6.2-1.2.7-1.6.5-.4 1-.7 1.6-.7zm18.2 3.3v.8h-11.9v-.8h1c1.1 0 2-.3 2.5-1 .3-.4.5-1.5.5-3.2V38.7c0-1.4-.1-2.3-.3-2.8-.1-.3-.4-.6-.8-.9-.6-.3-1.2-.5-1.9-.5h-1v-.8h11.9v.8h-1c-1.1 0-2 .3-2.5 1-.3.4-.5 1.5-.5 3.2v17.9c0 1.4.1 2.3.3 2.8.1.3.4.6.9.9.6.3 1.2.5 1.9.5h.9zm6.3-3.3c.6 0 1.2.2 1.6.7.4.4.7 1 .7 1.6 0 .6-.2 1.2-.7 1.6-.4.4-1 .7-1.6.7-.6 0-1.2-.2-1.6-.7-.4-.4-.7-1-.7-1.6 0-.6.2-1.2.7-1.6.4-.4.9-.7 1.6-.7zm22.3 4l-10.7-23.3v18.5c0 1.7.2 2.8.6 3.2.5.6 1.3.9 2.4.9h1v.8H329v-.8h1c1.2 0 2-.4 2.5-1.1.3-.4.5-1.4.5-3V38.6c0-1.2-.1-2.1-.4-2.7-.2-.4-.5-.7-1.1-1s-1.3-.4-2.5-.4v-.8h7.9L347 55.4l9.9-21.7h7.9v.8h-1c-1.2 0-2 .4-2.5 1.1-.3.4-.5 1.4-.5 3v18.1c0 1.7.2 2.8.6 3.2.5.6 1.3.9 2.4.9h1v.8H353v-.8h1c1.2 0 2-.4 2.5-1.1.3-.4.5-1.4.5-3V38.2l-10.7 23.3h-.9zM370 49.8c0 2.8.7 5 2 6.5 1.4 1.6 3 2.4 4.8 2.4 1.2 0 2.3-.3 3.2-1 .9-.7 1.7-1.8 2.3-3.5l.6.4c-.3 1.9-1.1 3.6-2.5 5.1-1.4 1.5-3.1 2.3-5.2 2.3-2.3 0-4.2-.9-5.8-2.6-1.6-1.8-2.4-4.1-2.4-7.1 0-3.2.8-5.7 2.5-7.5 1.6-1.8 3.7-2.7 6.2-2.7 2.1 0 3.8.7 5.2 2.1 1.3 1.4 2 3.2 2 5.6H370zm0-1.1h8.7c-.1-1.2-.2-2-.4-2.5-.3-.8-.8-1.4-1.5-1.8-.7-.4-1.4-.7-2.1-.7-1.1 0-2.1.4-3 1.3-1 .9-1.5 2.1-1.7 3.7zm31.4 5.7c-.5 2.5-1.5 4.4-3 5.7-1.5 1.3-3.1 2-4.9 2-2.1 0-4-.9-5.6-2.7-1.6-1.8-2.4-4.2-2.4-7.2 0-2.9.9-5.3 2.6-7.2 1.8-1.8 3.9-2.8 6.3-2.8 1.8 0 3.4.5 4.5 1.5 1.2 1 1.8 2 1.8 3 0 .5-.2.9-.5 1.3s-.8.5-1.4.5c-.8 0-1.4-.3-1.8-.8-.2-.3-.4-.8-.5-1.6-.1-.8-.4-1.4-.8-1.8-.5-.4-1.1-.6-2-.6-1.4 0-2.5.5-3.3 1.5-1.1 1.3-1.7 3.1-1.7 5.3 0 2.2.5 4.2 1.6 5.9 1.1 1.7 2.6 2.6 4.4 2.6 1.3 0 2.5-.5 3.6-1.4.8-.6 1.5-1.8 2.2-3.4l.9.2zm8.1-22v13.7c1.5-1.7 2.7-2.7 3.6-3.2.9-.5 1.8-.7 2.7-.7 1.1 0 2 .3 2.7.9.8.6 1.3 1.5 1.7 2.8.3.9.4 2.5.4 4.8v6.6c0 1.2.1 2 .3 2.4.1.3.4.6.7.8.3.2.9.3 1.8.3v.7h-9.2v-.7h.4c.9 0 1.5-.1 1.8-.4.3-.3.6-.7.7-1.2 0-.2.1-.9.1-1.9v-6.6c0-2-.1-3.4-.3-4-.2-.6-.5-1.1-1-1.4-.5-.3-1-.5-1.7-.5s-1.4.2-2.1.5c-.7.4-1.6 1.1-2.6 2.1v9.9c0 1.3.1 2.1.2 2.4.1.3.4.6.8.8.4.2 1.1.3 2 .3v.7h-9.3v-.7c.8 0 1.5-.1 2-.4.3-.1.5-.4.7-.8.2-.4.2-1.2.2-2.3v-17c0-2.1-.1-3.5-.2-3.9-.1-.5-.3-.8-.5-1-.2-.2-.5-.3-.8-.3-.3 0-.8.1-1.4.3l-.3-.7 5.6-2.3h1zm21 13.8c2.2-2.6 4.3-4 6.3-4 1 0 1.9.3 2.6.8.7.5 1.3 1.4 1.8 2.5.3.8.5 2.1.5 3.8v8c0 1.2.1 2 .3 2.4.1.3.4.6.7.8.3.2 1 .3 1.9.3v.7h-9.3v-.7h.4c.9 0 1.5-.1 1.8-.4.3-.3.6-.7.7-1.2.1-.2.1-.8.1-1.9v-7.7c0-1.7-.2-2.9-.7-3.7s-1.2-1.2-2.2-1.2c-1.6 0-3.2.9-4.8 2.7v9.9c0 1.3.1 2.1.2 2.4.2.4.5.7.8.9.3.2 1 .3 2 .3v.7h-9.3v-.7h.4c1 0 1.6-.2 1.9-.7.3-.5.5-1.4.5-2.8v-7c0-2.3-.1-3.6-.2-4.1-.1-.5-.3-.8-.5-1-.2-.2-.5-.3-.8-.3-.4 0-.8.1-1.4.3l-.3-.7 5.6-2.3h.9v3.9zm21.9-4v15.1c0 1.2.1 2 .3 2.3.2.4.4.7.8.9.3.2.9.3 1.8.3v.7h-9.1v-.7c.9 0 1.5-.1 1.8-.3.3-.2.6-.5.7-.9.2-.4.3-1.2.3-2.4V50c0-2-.1-3.3-.2-3.9-.1-.4-.2-.7-.5-.9-.2-.2-.5-.3-.8-.3-.4 0-.8.1-1.4.3l-.3-.7 5.6-2.3h1zm-1.7-9.8c.6 0 1.1.2 1.5.6.4.4.6.9.6 1.5s-.2 1.1-.6 1.5-.9.6-1.5.6-1.1-.2-1.5-.6c-.4-.4-.6-.9-.6-1.5s.2-1.1.6-1.5c.4-.4.9-.6 1.5-.6zm12.4 0V51l4.8-4.3c1-.9 1.6-1.5 1.8-1.8.1-.2.2-.3.2-.5 0-.3-.1-.5-.3-.7-.2-.2-.6-.3-1.1-.3v-.7h8.1v.7c-1.1 0-2 .2-2.8.5-.7.3-1.6.9-2.4 1.7l-4.8 4.4 4.8 6.1c1.3 1.7 2.2 2.7 2.7 3.2.7.6 1.2 1.1 1.7 1.2.3.1.9.2 1.8.2v.7h-9.1v-.7c.5 0 .9-.1 1.1-.2.2-.1.3-.3.3-.6s-.3-.8-.8-1.5l-5.7-7.3v6.2c0 1.2.1 2 .3 2.4.2.4.4.7.7.8.3.2 1 .3 2 .3v.7h-9.5v-.7c1 0 1.7-.1 2.1-.3.3-.2.5-.4.7-.7.2-.5.3-1.2.3-2.3V40.3c0-2.2 0-3.5-.1-4s-.3-.8-.5-1c-.2-.2-.5-.3-.9-.3-.3 0-.7.1-1.3.3l-.3-.7 5.6-2.3h.6zm24.6 9.8c2.8 0 5.1 1.1 6.8 3.2 1.5 1.8 2.2 4 2.2 6.3 0 1.7-.4 3.4-1.2 5.1-.8 1.7-1.9 3-3.3 3.9s-3 1.3-4.7 1.3c-2.8 0-5.1-1.1-6.7-3.4-1.4-1.9-2.1-4-2.1-6.4 0-1.7.4-3.4 1.3-5.1.9-1.7 2-3 3.4-3.8 1.3-.7 2.7-1.1 4.3-1.1zm-.7 1.4c-.7 0-1.4.2-2.2.6s-1.3 1.2-1.8 2.3-.7 2.5-.7 4.2c0 2.7.5 5.1 1.6 7.1s2.5 3 4.3 3c1.3 0 2.4-.5 3.3-1.6s1.3-3 1.3-5.6c0-3.3-.7-5.9-2.1-7.9-.9-1.5-2.2-2.1-3.7-2.1zm11.5-.8h8.8v.8h-.6c-.5 0-.9.1-1.2.4-.3.3-.4.6-.4 1 0 .5.1 1 .4 1.7l4.4 10.3 4.4-10.7c.3-.8.5-1.3.5-1.7 0-.2-.1-.3-.2-.5-.2-.2-.3-.3-.6-.4-.2-.1-.7-.1-1.4-.1v-.8h6.1v.8c-.7.1-1.2.2-1.5.4-.5.4-.9 1.1-1.3 2l-6.6 16.1h-.8l-6.7-15.8c-.3-.7-.6-1.3-.9-1.6-.3-.3-.6-.6-1-.8-.2-.1-.7-.2-1.4-.3v-.8zm-326 32.9h7.5l17 20.8v-16c0-1.7-.2-2.8-.6-3.2-.5-.6-1.3-.9-2.4-.9h-1v-.8h9.7v.8h-1c-1.2 0-2 .4-2.5 1.1-.3.4-.4 1.4-.4 3v23.4h-.8l-18.3-22.3v17.1c0 1.7.2 2.8.6 3.2.5.6 1.3.9 2.4.9h1v.8H174v-.8h1c1.2 0 2-.4 2.5-1.1.3-.4.5-1.4.5-3V79.3c-.8-.9-1.4-1.6-1.8-1.9s-1-.6-1.8-.8c-.4-.1-1-.2-1.8-.2v-.7zm42.7 25c-1.9 1.5-3.1 2.3-3.6 2.6-.7.3-1.5.5-2.4.5-1.3 0-2.4-.4-3.2-1.3-.8-.9-1.3-2.1-1.3-3.5 0-.9.2-1.7.6-2.4.6-.9 1.5-1.8 2.9-2.6s3.7-1.8 6.9-3v-.7c0-1.9-.3-3.1-.9-3.8-.6-.7-1.5-1-2.6-1-.9 0-1.5.2-2 .7-.5.5-.8 1-.8 1.6V89c0 .6-.2 1.1-.5 1.5-.3.3-.7.5-1.3.5-.5 0-.9-.2-1.2-.5-.3-.4-.5-.8-.5-1.5 0-1.2.6-2.3 1.8-3.2s2.9-1.5 5.1-1.5c1.7 0 3 .3 4.1.8.8.4 1.4 1.1 1.8 2 .2.6.4 1.8.4 3.6v6.4c0 1.8 0 2.9.1 3.3s.2.7.3.8c.2.1.3.2.5.2s.4 0 .6-.1c.3-.2.8-.7 1.7-1.5v1.1c-1.5 2-3 3.1-4.4 3.1-.7 0-1.2-.2-1.6-.7-.3-.7-.5-1.5-.5-2.6zm0-1.3v-7.1c-2.1.8-3.4 1.4-4 1.7-1.1.6-1.8 1.2-2.3 1.9-.5.7-.7 1.4-.7 2.1 0 1 .3 1.8.9 2.4.6.6 1.3 1 2 1 1 0 2.4-.7 4.1-2zm13.4-20.9v6.2h4.4v1.4h-4.4v12.1c0 1.2.2 2 .5 2.5.3.4.8.6 1.3.6s.9-.1 1.3-.4c.4-.3.8-.7 1-1.2h.8c-.5 1.3-1.2 2.3-2 3-.9.7-1.8 1-2.7 1-.6 0-1.2-.2-1.8-.5s-1-.8-1.3-1.5-.4-1.6-.4-3V86.1h-3v-.7c.8-.3 1.5-.8 2.3-1.5s1.5-1.6 2.1-2.5c.3-.5.8-1.5 1.3-2.8h.6zm12.7 5.6v15.1c0 1.2.1 2 .3 2.3.2.4.4.7.8.9.3.2.9.3 1.8.3v.7H235v-.7c.9 0 1.5-.1 1.8-.3.3-.2.6-.5.7-.9.2-.4.3-1.2.3-2.4V92c0-2-.1-3.3-.2-3.9-.1-.4-.2-.7-.5-.9-.2-.2-.5-.3-.8-.3-.4 0-.8.1-1.4.3l-.3-.7 5.6-2.3h1.1zm-1.7-9.8c.6 0 1.1.2 1.5.6.4.4.6.9.6 1.5s-.2 1.1-.6 1.5-.9.6-1.5.6-1.1-.2-1.5-.6c-.4-.4-.6-.9-.6-1.5s.2-1.1.6-1.5c.4-.4.9-.6 1.5-.6zm16 9.8c2.8 0 5.1 1.1 6.8 3.2 1.5 1.8 2.2 4 2.2 6.3 0 1.7-.4 3.4-1.2 5.1-.8 1.7-1.9 3-3.3 3.9s-3 1.3-4.7 1.3c-2.8 0-5.1-1.1-6.7-3.4-1.4-1.9-2.1-4-2.1-6.4 0-1.7.4-3.4 1.3-5.1.9-1.7 2-3 3.4-3.8 1.3-.7 2.7-1.1 4.3-1.1zm-.6 1.3c-.7 0-1.4.2-2.2.6s-1.3 1.2-1.8 2.3-.7 2.5-.7 4.2c0 2.7.5 5.1 1.6 7.1s2.5 3 4.3 3c1.3 0 2.4-.5 3.3-1.6s1.3-3 1.3-5.6c0-3.3-.7-5.9-2.1-7.9-1-1.4-2.2-2.1-3.7-2.1zm17.8 2.7c2.2-2.6 4.3-4 6.3-4 1 0 1.9.3 2.6.8.7.5 1.3 1.4 1.8 2.5.3.8.5 2.1.5 3.8v8c0 1.2.1 2 .3 2.4.1.3.4.6.7.8.3.2 1 .3 1.9.3v.7h-9.3v-.7h.4c.9 0 1.5-.1 1.8-.4.3-.3.6-.7.7-1.2.1-.2.1-.8.1-1.9v-7.7c0-1.7-.2-2.9-.7-3.7s-1.2-1.2-2.2-1.2c-1.6 0-3.2.9-4.8 2.7v9.9c0 1.3.1 2.1.2 2.4.2.4.5.7.8.9.3.2 1 .3 2 .3v.7h-9.3v-.7h.4c1 0 1.6-.2 1.9-.7.3-.5.5-1.4.5-2.8v-7c0-2.3-.1-3.6-.2-4.1-.1-.5-.3-.8-.5-1-.2-.2-.5-.3-.8-.3-.4 0-.8.1-1.4.3l-.3-.7 5.6-2.3h.9v3.9zm26.1 12.6c-1.9 1.5-3.1 2.3-3.6 2.6-.7.3-1.5.5-2.4.5-1.3 0-2.4-.4-3.2-1.3-.8-.9-1.3-2.1-1.3-3.5 0-.9.2-1.7.6-2.4.6-.9 1.5-1.8 2.9-2.6s3.7-1.8 6.9-3v-.7c0-1.9-.3-3.1-.9-3.8-.6-.7-1.5-1-2.6-1-.9 0-1.5.2-2 .7-.5.5-.8 1-.8 1.6V89c0 .6-.2 1.1-.5 1.5-.3.3-.7.5-1.3.5-.5 0-.9-.2-1.2-.5-.3-.4-.5-.8-.5-1.5 0-1.2.6-2.3 1.8-3.2s2.9-1.5 5.1-1.5c1.7 0 3 .3 4.1.8.8.4 1.4 1.1 1.8 2 .2.6.4 1.8.4 3.6v6.4c0 1.8 0 2.9.1 3.3s.2.7.3.8c.2.1.3.2.5.2s.4 0 .6-.1c.3-.2.8-.7 1.7-1.5v1.1c-1.5 2-3 3.1-4.4 3.1-.7 0-1.2-.2-1.6-.7-.2-.7-.4-1.5-.5-2.6zm0-1.3v-7.1c-2.1.8-3.4 1.4-4 1.7-1.1.6-1.8 1.2-2.3 1.9-.5.7-.7 1.4-.7 2.1 0 1 .3 1.8.9 2.4.6.6 1.3 1 2 1 1.1 0 2.5-.7 4.1-2zm14.5-25.1v24.9c0 1.2.1 2 .3 2.3.2.4.4.7.8.9.4.2 1 .3 2 .3v.7h-9.2v-.7c.9 0 1.4-.1 1.8-.3.3-.2.6-.5.7-.9.2-.4.3-1.2.3-2.4v-17c0-2.1 0-3.4-.1-3.9s-.2-.8-.5-1c-.2-.2-.5-.3-.8-.3-.4 0-.8.1-1.3.3l-.3-.7 5.6-2.3h.7zm34.3 2.1v-.8h9.8v.8h-1c-1.1 0-1.9.5-2.5 1.4-.3.4-.4 1.4-.4 2.9V92c0 2.8-.3 4.9-.8 6.5-.6 1.5-1.6 2.8-3.3 3.9s-3.8 1.6-6.6 1.6c-3 0-5.3-.5-6.9-1.6-1.6-1-2.7-2.5-3.3-4.2-.4-1.2-.7-3.5-.7-6.8V80.6c0-1.7-.2-2.8-.7-3.4-.5-.5-1.2-.8-2.3-.8h-1v-.8h12v.8h-1.1c-1.1 0-2 .4-2.5 1.1-.3.5-.5 1.5-.5 3.1v12.1c0 1.1.1 2.3.3 3.7.2 1.4.6 2.5 1.1 3.3s1.3 1.4 2.2 1.9c1 .5 2.2.8 3.6.8 1.8 0 3.4-.4 4.9-1.2 1.4-.8 2.4-1.8 2.9-3s.8-3.3.8-6.3V80.6c0-1.7-.2-2.8-.6-3.3-.5-.6-1.3-.9-2.4-.9h-1zm17 11.7c2.2-2.6 4.3-4 6.3-4 1 0 1.9.3 2.6.8.7.5 1.3 1.4 1.8 2.5.3.8.5 2.1.5 3.8v8c0 1.2.1 2 .3 2.4.1.3.4.6.7.8.3.2 1 .3 1.9.3v.7h-9.3v-.7h.4c.9 0 1.5-.1 1.8-.4.3-.3.6-.7.7-1.2.1-.2.1-.8.1-1.9v-7.7c0-1.7-.2-2.9-.7-3.7s-1.2-1.2-2.2-1.2c-1.6 0-3.2.9-4.8 2.7v9.9c0 1.3.1 2.1.2 2.4.2.4.5.7.8.9.3.2 1 .3 2 .3v.7h-9.3v-.7h.4c1 0 1.6-.2 1.9-.7.3-.5.5-1.4.5-2.8v-7c0-2.3-.1-3.6-.2-4.1-.1-.5-.3-.8-.5-1-.2-.2-.5-.3-.8-.3-.4 0-.8.1-1.4.3l-.3-.7 5.6-2.3h.9v3.9zm22-4v15.1c0 1.2.1 2 .3 2.3.2.4.4.7.8.9.3.2.9.3 1.8.3v.7h-9.1v-.7c.9 0 1.5-.1 1.8-.3.3-.2.6-.5.7-.9.2-.4.3-1.2.3-2.4V92c0-2-.1-3.3-.2-3.9-.1-.4-.2-.7-.5-.9-.2-.2-.5-.3-.8-.3-.4 0-.8.1-1.4.3l-.3-.7 5.6-2.3h1zm-1.7-9.8c.6 0 1.1.2 1.5.6.4.4.6.9.6 1.5s-.2 1.1-.6 1.5-.9.6-1.5.6-1.1-.2-1.5-.6c-.4-.4-.6-.9-.6-1.5s.2-1.1.6-1.5c.4-.4.9-.6 1.5-.6zm5.9 10.4h8.8v.8h-.6c-.5 0-.9.1-1.2.4-.3.3-.4.6-.4 1 0 .5.1 1 .4 1.7l4.4 10.3 4.4-10.7c.3-.8.5-1.3.5-1.7 0-.2-.1-.3-.2-.5-.2-.2-.3-.3-.6-.4-.2-.1-.7-.1-1.4-.1v-.8h6.1v.8c-.7.1-1.2.2-1.5.4-.5.4-.9 1.1-1.3 2l-6.6 16.1h-.8l-6.7-15.8c-.3-.7-.6-1.3-.9-1.6-.3-.3-.6-.6-1-.8-.2-.1-.7-.2-1.4-.3v-.8zm25.1 7c0 2.8.7 5 2 6.5 1.4 1.6 3 2.4 4.8 2.4 1.2 0 2.3-.3 3.2-1 .9-.7 1.7-1.8 2.3-3.5l.6.4c-.3 1.9-1.1 3.6-2.5 5.1-1.4 1.5-3.1 2.3-5.2 2.3-2.3 0-4.2-.9-5.8-2.6-1.6-1.8-2.4-4.1-2.4-7.1 0-3.2.8-5.7 2.5-7.5 1.6-1.8 3.7-2.7 6.2-2.7 2.1 0 3.8.7 5.2 2.1 1.3 1.4 2 3.2 2 5.6H416zm0-1.2h8.7c-.1-1.2-.2-2-.4-2.5-.3-.8-.8-1.4-1.5-1.8-.7-.4-1.4-.7-2.1-.7-1.1 0-2.1.4-3 1.3-1.1.9-1.6 2.2-1.7 3.7zm20.9-6.4v4.2c1.6-2.8 3.2-4.2 4.8-4.2.7 0 1.4.2 1.9.7.5.5.7 1 .7 1.6 0 .5-.2 1-.5 1.3s-.8.6-1.3.6-1-.2-1.6-.7c-.6-.5-1-.7-1.3-.7-.2 0-.5.1-.8.4-.6.6-1.2 1.5-1.9 2.8v9c0 1 .1 1.8.4 2.4.2.4.5.7.9.9s1.1.4 1.9.4v.7h-9.6v-.7c1 0 1.7-.2 2.1-.5.3-.2.6-.6.7-1 .1-.2.1-.9.1-2V92c0-2.2 0-3.5-.1-3.9-.1-.4-.3-.7-.5-.9-.2-.2-.5-.3-.9-.3s-.9.1-1.4.3l-.2-.7 5.7-2.3h.9zm20.6 0v6.4h-.7c-.5-2-1.2-3.4-2-4.1-.8-.7-1.8-1.1-3.1-1.1-1 0-1.7.3-2.3.8-.6.5-.9 1.1-.9 1.7 0 .8.2 1.4.7 2 .4.6 1.3 1.2 2.6 1.8l3 1.5c2.8 1.4 4.2 3.1 4.2 5.3 0 1.7-.6 3.1-1.9 4.1-1.3 1-2.7 1.6-4.3 1.6-1.1 0-2.5-.2-3.9-.6-.4-.1-.8-.2-1.1-.2-.3 0-.6.2-.7.5h-.7V97h.7c.4 1.9 1.1 3.3 2.2 4.3s2.3 1.5 3.6 1.5c.9 0 1.7-.3 2.3-.8.6-.6.9-1.2.9-2 0-.9-.3-1.7-1-2.4s-2-1.5-4-2.4c-2-1-3.3-1.9-3.9-2.7-.6-.8-.9-1.8-.9-2.9 0-1.5.5-2.8 1.6-3.9 1.1-1 2.4-1.6 4.1-1.6.7 0 1.6.2 2.7.5.7.2 1.2.3 1.4.3.2 0 .4 0 .5-.1.1-.1.3-.3.4-.6h.5zm10.6 0v15.1c0 1.2.1 2 .3 2.3.2.4.4.7.8.9.3.2.9.3 1.8.3v.7h-9.1v-.7c.9 0 1.5-.1 1.8-.3.3-.2.6-.5.7-.9.2-.4.3-1.2.3-2.4V92c0-2-.1-3.3-.2-3.9-.1-.4-.2-.7-.5-.9-.2-.2-.5-.3-.8-.3-.4 0-.8.1-1.4.3l-.3-.7 5.6-2.3h1zm-1.7-9.8c.6 0 1.1.2 1.5.6.4.4.6.9.6 1.5s-.2 1.1-.6 1.5-.9.6-1.5.6-1.1-.2-1.5-.6c-.4-.4-.6-.9-.6-1.5s.2-1.1.6-1.5c.4-.4.9-.6 1.5-.6zm12.3 4.2v6.2h4.4v1.4h-4.4v12.1c0 1.2.2 2 .5 2.5.3.4.8.6 1.3.6s.9-.1 1.3-.4c.4-.3.8-.7 1-1.2h.8c-.5 1.3-1.2 2.3-2 3-.9.7-1.8 1-2.7 1-.6 0-1.2-.2-1.8-.5s-1-.8-1.3-1.5-.4-1.6-.4-3V86.1h-3v-.7c.8-.3 1.5-.8 2.3-1.5s1.5-1.6 2.1-2.5c.3-.5.8-1.5 1.3-2.8h.6zm5.2 6.2h8.7v.8h-.4c-.6 0-1.1.1-1.4.4s-.5.6-.5 1c0 .5.2 1.3.7 2.2l4.6 9.4 4.2-10.3c.2-.6.3-1.1.3-1.7 0-.2 0-.4-.1-.6-.1-.1-.3-.3-.5-.4-.2-.1-.6-.1-1.2-.1v-.8h6.1v.8c-.5.1-.9.2-1.2.3-.3.2-.6.5-.9.9-.1.2-.4.7-.7 1.6l-7.6 18.7c-.7 1.8-1.7 3.2-2.9 4.1-1.2.9-2.3 1.4-3.4 1.4-.8 0-1.5-.2-2-.7-.5-.5-.8-1-.8-1.6 0-.6.2-1 .6-1.4s.9-.5 1.5-.5c.5 0 1.1.1 1.8.5.5.2.9.3 1 .3.4 0 .9-.2 1.3-.6.5-.4 1-1.2 1.5-2.5l1.3-3.3-6.7-14.1c-.2-.4-.5-.9-1-1.6-.3-.5-.6-.8-.8-1-.3-.2-.8-.4-1.5-.6v-.6z" fill="#4C69AC"/>
  <path d="M35.4 117.2c-.6-.4-1-1.1-1.2-1.9-.1-.8 0-1.6.5-2.3.5-.8 1.2-1.2 2-1.4.8-.2 1.5 0 2.2.4.7.5 1.1 1.1 1.2 1.9.1.8-.1 1.6-.6 2.3-.5.8-1.2 1.2-2.1 1.4-.6.2-1.3 0-2-.4zm.3-.2c.4.3.9.4 1.4.2.6-.2 1.2-.7 1.7-1.5s.8-1.5.7-2.2c0-.5-.3-.9-.7-1.2-.5-.3-1-.4-1.5-.2s-1.1.6-1.6 1.4c-.6.8-.8 1.6-.8 2.2.1.6.3 1 .8 1.3zm.2-6.9l-.1.1-.2-.1c-.2-.2-.4-.2-.6-.2-.1 0-.3.2-.5.4l-2.5 2.9c-.2.3-.4.5-.4.6 0 .2.1.3.3.5l.2.1-.1.1-1.8-1.6c-.7-.6-1.1-1.1-1.3-1.6-.2-.5-.3-1-.2-1.5s.4-1 .8-1.5c.5-.6 1.2-1 1.9-1.1.8-.1 1.7.2 2.6 1l1.9 1.9zm-1.6-.8c-.2-.3-.4-.5-.6-.7-.5-.4-1.1-.6-1.7-.6-.7.1-1.2.4-1.8 1-.5.6-.8 1.3-.8 1.9 0 .7.3 1.2.8 1.7.2.2.5.3.8.5l3.3-3.8zm-8.8-1.2l1.7-1.6-.9-1c-.2-.3-.4-.4-.6-.4-.2 0-.4.1-.7.3l-.1-.1 1.5-1.4.1.1c-.2.2-.3.4-.3.5v.4c0 .1.1.3.3.5l.9 1 1.5-1.3.3-.3v-.2c0-.1-.1-.2-.2-.3l-.7-.8c-.2-.3-.4-.4-.5-.5-.1-.1-.3-.1-.5-.1-.3 0-.6 0-1 .1l-.1-.1 1.5-.6 3.1 3.4-.1.1-.1-.2c-.1-.1-.2-.2-.3-.2H30c-.1 0-.2.2-.5.3l-2.9 2.6c-.3.3-.4.4-.4.6 0 .2.1.3.2.5l.1.2-.1.1-3.1-3.4.9-.9.1.1c-.2.3-.3.5-.3.6v.4c0 .1.2.3.4.5l1.1 1.1zm-5.8-6.5l1.7-1.2.1.1c-.3.3-.5.5-.6.8-.1.2-.1.5-.1.8 0 .3.1.5.3.8.2.2.4.4.7.4.3.1.5 0 .7-.1.1-.1.2-.3.3-.4.1-.3.1-.8-.1-1.6-.1-.6-.1-1.1-.1-1.3 0-.3.1-.5.2-.7.1-.2.3-.4.5-.5.4-.3.8-.4 1.3-.3.5.1.9.4 1.2.8.1.1.2.3.3.4 0 .1.1.3.2.6s.2.5.2.5c0 .1.1.1.2.1s.2 0 .3-.1l.1.1-1.6 1.2-.1-.1c.3-.3.5-.6.6-.8.1-.2.1-.5.1-.8s-.2-.6-.3-.8c-.2-.3-.5-.5-.7-.5-.3-.1-.5 0-.7.1-.1.1-.2.2-.3.4s-.1.3-.1.5c0 .1 0 .5.1 1.1.1.6.1 1 .1 1.3 0 .3-.1.5-.2.7-.1.2-.2.4-.4.5-.3.3-.7.3-1.2.3-.4-.1-.8-.3-1.1-.7-.2-.3-.3-.6-.4-1 0-.2-.1-.3-.1-.3 0-.1-.1-.1-.2-.1s-.2 0-.3.1l-.6-.3zm-3.1-5l1.8-1 .1.1c-.3.2-.5.5-.7.7s-.2.5-.2.8.1.5.2.8c.2.3.4.4.6.5.3.1.5.1.7-.1.2-.1.3-.2.3-.4.1-.3.1-.8.1-1.6v-1.3s.1-.5.2-.7c.1-.2.3-.4.5-.5.4-.2.8-.3 1.3-.1.5.1.8.4 1.1.9.1.1.2.3.2.4 0 .1.1.3.1.6.1.3.1.5.2.5 0 .1.1.1.1.1.1 0 .2 0 .3-.1l.1.1-1.8 1-.1-.1c.3-.3.6-.5.7-.8.1-.2.2-.5.2-.8s-.1-.6-.3-.9c-.2-.3-.4-.5-.7-.6-.3-.1-.5-.1-.8.1l-.3.3c-.1.1-.1.3-.2.5v2.4c0 .3-.1.5-.2.7s-.3.4-.5.5c-.4.2-.8.3-1.2.1-.4-.1-.8-.4-1-.8-.2-.3-.3-.6-.3-1 0-.2 0-.3-.1-.4 0-.1-.1-.1-.2-.1h-.3l.1.2zm1.1-7.1l.9 2.1h1c.3 0 .4 0 .5-.1.1 0 .1-.1.2-.2 0-.1 0-.3-.1-.6l.1-.1.8 1.7-.1.2c-.1-.2-.3-.3-.4-.4-.2-.1-.5-.1-1-.1l-5.3.1V92l3.7-4c.3-.3.5-.6.5-.7v-.6l.1-.1 1 2.1-.1.1c-.1-.2-.2-.3-.3-.4s-.2-.1-.3 0c-.1.1-.3.2-.5.4l-.7.7zm-.2.3l-1.8 1.9h2.6l-.8-1.9zm-2-29.2h.2l-.3 2.5h-.2v-.2c0-.2 0-.4-.2-.6-.1-.1-.3-.1-.7-.2l-3.8-.4h-.6c-.1 0-.1.1-.2.2s-.1.3-.1.4v.2h-.2l.3-2.5h.2v.2c0 .2 0 .4.2.6.1.1.3.1.7.2l3.8.4h.6c.1 0 .1-.1.2-.2s.1-.2.1-.4v-.2zm-.4-1.8c0-.1.1-.2.2-.3.1-.1.2-.1.4-.1.1 0 .2.1.3.2.1.1.1.2.1.4 0 .1-.1.2-.2.3-.1.1-.2.1-.4.1-.1 0-.2-.1-.3-.2-.1-.1-.2-.3-.1-.4zm1.5-4.1h.2l-.5 2.5h-.2V57c.1-.2 0-.4-.1-.6-.1-.1-.3-.2-.6-.2l-3.8-.8c-.3-.1-.5-.1-.6-.1-.1 0-.2.1-.2.1-.1.1-.2.2-.2.4v.2h-.2l.5-2.5h.2v.2c-.1.2 0 .4.1.6.1.1.3.2.6.3l3.8.8c.3.1.5.1.6.1.1 0 .2-.1.2-.1.1-.1.2-.2.2-.4v-.3zm-.2-1.8c0-.1.1-.2.2-.3.1-.1.2-.1.4 0s.2.1.3.2c.1.1.1.2 0 .4 0 .1-.1.2-.2.3-.1.1-.2.1-.4 0-.1 0-.2-.1-.3-.2 0-.2-.1-.3 0-.4zm2.4-4.7l-5.5.3L17 50c.3.1.6.2.7.1.2-.1.3-.2.4-.4l.1-.2.2.1-.8 1.9-.2-.1.1-.2c.1-.2.1-.4 0-.6-.1-.1-.3-.2-.6-.3l-3.6-1.4c-.2-.1-.4-.1-.6-.1-.1 0-.2.1-.3.1-.1.1-.2.2-.3.5l-.1-.1.6-1.6 5.1-.3-3.6-3.7.6-1.6.2.1-.1.2c-.1.2-.1.4 0 .6.1.1.3.2.6.3l3.6 1.4c.3.1.6.2.7.1.2-.1.3-.2.4-.4l.1-.2.2.1-.9 2.4-.2-.1.1-.2c.1-.2.1-.4 0-.6-.1-.1-.3-.2-.6-.3L15 44.1l3.8 4v.1zm-2.2-8.6l2.1 1.1.6-1.1c.2-.3.2-.5.2-.7 0-.2-.2-.4-.5-.6l.1-.1 1.8 1-.1.1c-.3-.1-.5-.2-.5-.2-.1 0-.2 0-.3.1s-.2.2-.3.4l-.6 1.1 1.7 1 .4.2h.2c.1 0 .1-.1.2-.3l.5-.9c.2-.3.3-.5.3-.7v-.5c-.1-.2-.2-.5-.4-.9l.1-.2 1.1 1.2-2.2 4-.1-.1.1-.2c.1-.1.1-.3.1-.4 0-.1 0-.2-.1-.3-.1-.1-.2-.2-.5-.3l-3.4-1.9c-.3-.2-.6-.3-.7-.2-.2 0-.3.2-.4.4l-.4.4h-.1l2.2-4 1.2.6-.1.2c-.3-.1-.5-.1-.7-.1-.1 0-.3.1-.4.2-.1.1-.2.3-.4.5l-.7 1.2zm5-8.6l1.7 1.1-.1.1c-.6-.2-1.1-.2-1.5-.1-.4.1-.8.4-1 .8-.2.3-.4.7-.4 1 0 .4.1.8.3 1.2.3.4.6.8 1.2 1.2.4.3.9.5 1.3.6s.8.1 1.2-.1.7-.4.9-.8c.2-.3.4-.6.4-1 0-.3 0-.8-.2-1.4l.2-.1c.3.6.4 1.1.3 1.5s-.2.9-.5 1.4c-.6.8-1.3 1.2-2.2 1.2-.7 0-1.3-.2-1.9-.6-.5-.3-.9-.8-1.1-1.3-.3-.5-.4-1-.3-1.6 0-.5.2-1 .6-1.5.2-.4.6-.6 1-.9.1-.1.2-.1.2-.2s.1-.1.1-.2-.1-.2-.2-.3zm4.3-.7l1.9-2-1.3-1.1c-.2-.2-.4-.3-.5-.4h-.3c-.1 0-.3.1-.3.2l-.1.2-.1-.2 1.7-1.9.1.1-.1.2c-.1.1-.2.2-.2.4v.3l.4.4 2.8 2.6c.2.2.4.3.5.4h.3c.1 0 .3-.1.4-.2l.1-.2.1.1-1.7 1.8-.1-.1.1-.2c.2-.2.2-.4.2-.5 0-.1-.2-.3-.4-.5L28 28.5l-1.9 2 1.3 1.2c.2.2.4.3.5.4h.3c.1 0 .3-.1.3-.2l.1-.2.1.1-1.7 1.9v-.1l.1-.2c.2-.2.2-.4.2-.5 0-.1-.2-.3-.4-.5l-2.8-2.6c-.2-.2-.4-.3-.5-.4h-.3c-.1 0-.3.1-.4.2l-.1.2-.1-.1 1.7-1.9.1.1-.1.2c-.1.1-.2.2-.2.4v.3c0 .1.2.2.4.4l1.3 1.1zm1.7-6l1.2-1.1 5.7 1-2.2-2.6c-.2-.3-.4-.4-.5-.4-.2 0-.3 0-.5.2l-.2.1H31l1.6-1.3.1.1-.2.1c-.2.2-.3.3-.3.5 0 .1.1.3.3.6l3.3 3.8-.1.1-6.1-1.1 2.4 2.8c.2.3.4.4.5.4.2 0 .3 0 .5-.2l.2-.1.1.1-1.6 1.3-.1-.1.2-.1c.2-.2.3-.3.3-.5 0-.1-.1-.3-.3-.6L29 24.2c-.3 0-.4-.1-.6 0s-.2 0-.4.1c-.1 0-.2.1-.3.2l-.1-.2zM39 22.7l.1.1-2.1 1.5-.1-.1.2-.1c.2-.1.3-.3.3-.5 0-.1-.1-.3-.3-.6l-2.2-3.1c-.2-.2-.3-.4-.4-.5-.1 0-.2-.1-.3-.1-.1 0-.3.1-.4.1l-.2.1-.1-.1 2.1-1.5.1.1-.2.1c-.2.1-.3.3-.3.5 0 .1.1.3.3.6l2.2 3.1c.2.2.3.4.4.5.1 0 .2.1.3 0 .1 0 .3-.1.4-.1h.2zm1.2-4.4l3 .8c.5.1.9.2 1.2.2.3 0 .5-.1.8-.2l.1.1-2.5 1.4-.1-.1.3-.3V20c0-.1-.1-.1-.1-.1-.1 0-.2-.1-.4-.1l-2.9-.8 1 1.7c.1.3.3.4.3.5.1 0 .1.1.3.1.1 0 .3 0 .4-.1l.2-.1.1.1-2.2 1.3-.1-.1.2-.1c.2-.1.3-.3.4-.5 0-.1-.1-.3-.2-.6l-2-3.5c-.1-.3-.3-.4-.3-.5-.1 0-.1-.1-.2-.1s-.3 0-.4.1l-.2.1-.1-.1 2.2-1.3.1.1-.2.1-.3.3c-.1.1-.1.2-.1.3s.1.3.2.5l.9 1.6c0-.1.1-.3.2-.8.4-1.1.6-1.8.6-2.2v-.3c0-.1-.1-.1-.2-.1s-.2 0-.3.1l-.1.1-.1-.1 1.9-1.1.1.1c-.1.1-.2.1-.3.2-.1.1-.2.2-.2.4-.1.2-.2.4-.3.7 0 .1-.1.5-.3 1.2l-.4 1.3zm5.9-6.1c.7-.3 1.4-.3 2.2 0 .7.3 1.3.9 1.6 1.7.3.8.4 1.6.1 2.4-.3.8-.8 1.3-1.6 1.6-.8.3-1.5.3-2.2 0-.7-.3-1.3-.9-1.6-1.8-.4-.9-.4-1.7 0-2.5.3-.6.8-1.1 1.5-1.4zm.1.4c-.5.2-.8.6-1 1-.2.6-.1 1.4.3 2.2.4.9.9 1.5 1.4 1.8.4.2.9.3 1.4.1.5-.2.9-.6 1-1.1.2-.5.1-1.2-.3-2.1-.4-.9-.9-1.6-1.4-1.9-.4-.2-.9-.3-1.4 0zm10.1-3.5v.2c-.2.1-.3.2-.4.3-.1.2-.2.4-.2.7l-.7 5.5h-.2l-3.5-4.4c-.2-.2-.3-.4-.4-.4-.1-.1-.2-.1-.3-.1h-.4v-.2l2.3-.6v.2c-.3.1-.4.2-.5.3v.2c0 .1.2.3.4.6l2.4 3 .4-3.7V10c0-.1-.1-.1-.2-.2s-.3-.1-.5 0h-.1v-.2l1.9-.5zm26.9.3l1.5.5 2.2 5.3 1-3.3c.1-.4.1-.6.1-.7-.1-.1-.2-.3-.4-.3l-.2-.1v-.2l2 .6v.2l-.2-.1c-.2-.1-.4-.1-.6.1-.1.1-.2.3-.3.6l-1.5 4.8h-.2l-2.4-5.7-1.1 3.5c-.1.4-.1.6-.1.7.1.2.2.3.4.3l.2.1v.2l-2-.6v-.2l.2.1c.2.1.4.1.6-.1.1-.1.2-.3.3-.6l1.2-4c-.1-.2-.2-.4-.3-.5l-.3-.3c-.1 0-.2-.1-.4-.1l.3-.2zm9.5 7.6l-2.1-1-.8.7c-.2.2-.3.3-.3.4v.3s.2.2.5.4l-.1.1-1.7-.8.1-.1c.2.1.4.1.5 0 .2-.1.5-.3.8-.6l3.9-3.6.1.1-.1 5.4c0 .4 0 .7.1.9.1.2.2.3.4.4l-.1.1-2.1-1 .1-.1c.2.1.4.1.5.1.1 0 .2-.1.2-.2.1-.1.1-.3.1-.6V17zm0-.4l.1-2.6-1.9 1.8 1.8.8zm8.2.3l-.6 1.2-.1-.1c.1-.2.1-.4.1-.5 0-.2 0-.4-.1-.5-.1-.1-.2-.3-.5-.4l-.7-.4-2.3 4c-.2.3-.3.5-.2.7 0 .2.2.3.4.4l.2.1-.1.1-2.2-1.3.1-.1.2.1c.2.1.4.1.6.1.1 0 .2-.2.4-.5l2.3-4-.6-.4c-.2-.1-.4-.2-.5-.2-.2 0-.3 0-.5.1s-.3.2-.5.5l-.1-.1.8-1.2 3.9 2.4zm-.1 7l-.1.1-2.1-1.5.1-.1.2.1c.2.1.4.2.6.1.1 0 .3-.2.5-.5l2.2-3.2c.2-.2.3-.4.3-.5v-.3l-.3-.3-.2-.1.1-.1 2.1 1.5-.1.1-.2-.1c-.2-.1-.4-.2-.6-.1-.1 0-.3.2-.5.5l-2.2 3.2c-.2.2-.3.4-.3.5v.3l.3.3.2.1zm6.9-2.2c.6.5.9 1.2 1 2 .1.8-.2 1.6-.8 2.2-.6.7-1.3 1.1-2.1 1.2-.8.1-1.5-.1-2.2-.6-.6-.5-1-1.2-1-2-.1-.8.2-1.6.8-2.3.6-.7 1.4-1.1 2.2-1.2.8 0 1.5.2 2.1.7zm-.3.2c-.4-.3-.9-.5-1.4-.4-.6.1-1.2.5-1.9 1.3-.6.7-.9 1.5-1 2.1 0 .5.2.9.6 1.3.4.4.9.5 1.5.4.6-.1 1.1-.5 1.7-1.2.7-.8 1-1.5 1-2.1.1-.6-.1-1-.5-1.4zm3.3 2.6l1.1 1.2-.8 5.7 2.5-2.3c.3-.2.4-.4.4-.6 0-.2-.1-.3-.2-.5l-.1-.2.1-.1 1.4 1.5-.1.1-.1-.2c-.2-.2-.3-.3-.5-.2-.1 0-.3.1-.5.4l-3.7 3.4-.1-.1.8-6.1-2.7 2.5c-.3.2-.4.4-.4.6 0 .2.1.3.2.5l.1.2-.1.1-1.4-1.5.1-.1.1.2c.2.2.4.3.5.2.1 0 .3-.1.5-.4l3-2.8v-.6s-.1-.2-.1-.4c0-.1-.1-.2-.2-.3l.2-.2zm4.3 11.3l-1.3-1.9-1 .2c-.2.1-.4.1-.5.2-.1.1-.1.1-.1.2s.1.3.2.5l-.1.1-1.1-1.5.1-.1c.2.2.3.3.4.3.2 0 .5 0 1-.1l5.2-1.2.1.1-2.8 4.6-.4.8s0 .4.2.6l-.1.1-1.4-1.9.1-.1c.1.2.3.3.4.3h.3c.1-.1.2-.2.4-.5l.4-.7zm.2-.3l1.4-2.2-2.6.6 1.2 1.6zm3.7 7.4v.1l-1.7.3-2.2-4 .1-.1.1.2c.1.2.3.3.5.4.1 0 .3-.1.6-.2l3.4-1.9c.3-.2.5-.3.6-.4.1-.2 0-.3-.1-.5l-.1-.2.1-.1 1.3 2.4-.1.1c-.2-.3-.3-.5-.4-.5-.1-.1-.2-.1-.3-.1-.1 0-.3.1-.6.3l-3.3 1.8c-.2.1-.3.2-.4.3 0 .1-.1.1 0 .2s.1.3.3.6l.2.4c.2.4.4.7.6.8.1.1.3.2.6.3.1-.2.4-.2.8-.2zm9.7 28.5h.2l-.1 2.1h-.2v-.2c0-.2-.1-.4-.3-.6-.1-.1-.3-.1-.6-.1l-2.4-.1c-.6 0-1.1-.1-1.4-.2-.3-.1-.6-.4-.8-.7-.2-.4-.3-.8-.3-1.4 0-.6.2-1.1.4-1.5.2-.3.6-.6.9-.7.3-.1.8-.1 1.5-.1l2.3.1c.4 0 .6 0 .7-.1s.2-.3.2-.5v-.2h.2l-.1 2.6h-.2v-.2c0-.2-.1-.4-.2-.5-.1-.1-.3-.1-.7-.1l-2.6-.1h-.8c-.3 0-.5.1-.7.2-.2.1-.3.3-.4.5-.1.2-.2.5-.2.8 0 .4.1.7.2 1.1.2.3.4.5.6.7.3.1.7.2 1.3.2l2.4.1c.4 0 .6 0 .7-.1.1-.1.2-.3.2-.5l.2-.5zm0 3.1l-.3 1.6-5 2.8 3.4.6c.4.1.6.1.7 0 .1-.1.2-.2.3-.5v-.2h.2l-.4 2h-.2v-.2c0-.2 0-.4-.1-.6-.1-.1-.3-.1-.6-.2l-4.9-.9v-.2l5.4-3.1-3.6-.6c-.4-.1-.6-.1-.7 0-.1.1-.2.2-.3.5v.2h-.2l.4-2h.2v.2c0 .3 0 .4.1.6.1.1.3.1.6.2l4.1.7c.2-.1.4-.2.5-.3s.2-.2.2-.4c0-.1.1-.2.1-.4l.1.2zm-7.7 8.5h-.2l.7-2.5h.2l-.1.2c-.1.2 0 .4.1.6.1.1.3.2.6.3l3.7 1c.3.1.5.1.6.1.1 0 .2 0 .2-.1.1-.1.2-.2.2-.4l.1-.2h.2l-.7 2.5h-.2l.1-.2c.1-.2 0-.4-.1-.6-.1-.1-.3-.2-.6-.3l-3.7-1c-.3-.1-.5-.1-.6-.1-.1 0-.2.1-.2.1-.1.1-.2.2-.2.4l-.1.2zm3.1 8.6l-.2-.1V91c-.1-.2-.2-.4-.5-.6l-4-3.7.1-.2 5.6-.3c.3 0 .5 0 .5-.1.1 0 .2-.1.3-.2.1-.1.2-.2.2-.4l.2.1-.9 2.3-.2-.1c.1-.3.1-.5.1-.6s-.1-.2-.2-.2c-.1-.1-.4-.1-.7-.1l-3.8.2 2.7 2.5c.3.2.5.4.6.4h.3l.3-.3v-.1l.2.1-.6 1.9zm-1.7 2.5l-2.1-1.1-.6 1.2c-.2.3-.2.5-.2.7 0 .2.2.4.5.6l-.1.1-1.8-1 .1-.1c.3.1.5.1.6.1.1 0 .2 0 .3-.1.1-.1.2-.2.3-.5l.6-1.2-1.7-.9-.4-.2h-.2c-.1 0-.1.1-.2.3l-.5.9c-.2.3-.2.5-.3.7v.5c.1.2.2.5.5.9l-.1.2-1.1-1.1L118 90l.1.1-.1.2c-.1.1-.1.3-.1.4 0 .1 0 .2.1.3.1.1.2.2.5.3l3.4 1.8c.3.2.6.2.7.2.2 0 .3-.2.4-.4l.1-.2.1.1-2.1 4.1-1.2-.5.1-.2c.3.1.5.1.7.1.1 0 .3-.1.4-.2.1-.1.2-.3.3-.5l.9-1.5zm-10.1 6l.9-1.3 3.4-.1c.1-.1.1-.2.2-.3 0 0 0-.1.1-.1l.1-.1-1.4-1c-.3-.2-.5-.3-.6-.3-.2 0-.3.1-.4.3l-.1.2-.1-.1 1.4-2.1.1.1-.1.2c-.1.2-.2.4-.1.6 0 .1.2.2.5.4l3.2 2.1c.3.2.5.3.6.3.2 0 .3-.1.4-.3l.1-.2.1.1-1.2 1.8c-.4.5-.7.9-.9 1.1s-.5.3-.8.4-.6 0-.9-.2c-.3-.2-.5-.5-.6-.8s0-.8.1-1.2l-2.1.1c-.5 0-.8.1-1.1.2-.2.1-.4.3-.6.5l-.2-.3zm4.9-1.8l-.1.1s0 .1-.1.1c-.3.5-.5.9-.4 1.3 0 .4.2.7.5.9.3.2.6.3.9.2.3-.1.6-.3.8-.6.1-.1.2-.3.3-.6l-1.9-1.4zm-3.1 9l-1.6-1.3.1-.1c.3.2.6.3.9.4.3 0 .5 0 .8-.1.3-.1.5-.3.7-.5.2-.2.3-.5.3-.8 0-.3-.1-.5-.3-.6-.1-.1-.3-.2-.5-.2-.3 0-.8.1-1.5.4-.6.2-1 .4-1.3.4-.3.1-.5.1-.7 0l-.6-.3c-.3-.3-.5-.7-.6-1.2 0-.5.1-.9.5-1.4l.3-.3c.1-.1.2-.2.5-.3.3-.2.4-.3.5-.3 0-.1.1-.1.1-.2s-.1-.1-.1-.2l.1-.1 1.6 1.3-.1.1c-.4-.2-.7-.3-.9-.4-.2 0-.5 0-.8.1-.3.1-.5.3-.7.5-.2.3-.3.6-.3.9 0 .3.1.5.3.7.1.1.3.2.4.2h.6c.1 0 .5-.2 1-.4s1-.3 1.2-.4c.3-.1.5-.1.7 0 .2 0 .4.1.6.3.3.3.5.6.5 1.1s-.1.9-.4 1.3c-.2.2-.5.4-.8.6-.2.1-.3.1-.3.2s-.1.1-.1.2 0 .2.1.3l-.2.1zm-7.3-.9l-.1-.1 1.8-1.8.1.1-.1.2c-.2.2-.2.4-.2.5 0 .1.2.3.4.5l2.7 2.7c.2.2.4.3.5.4h.3c.1 0 .3-.1.4-.2l.1-.1.1.1-1.8 1.8-.1-.1.2-.2c.2-.2.2-.4.2-.5 0-.1-.2-.3-.4-.6l-2.7-2.7c-.2-.2-.4-.3-.5-.4h-.3c-.1 0-.3.1-.4.2l-.2.2zm-.6 8.2l-1-1 .1-.1c.2.2.3.3.4.3.2.1.4.1.5 0s.3-.1.5-.3l.6-.5-3-3.5c-.2-.3-.4-.4-.5-.4-.2 0-.3 0-.5.2l-.2.1-.1-.1 1.9-1.6.1.1-.2.1c-.2.2-.3.3-.3.5 0 .1.1.3.3.6l3 3.5.5-.5.4-.4c.1-.1.1-.3.1-.5s-.1-.4-.3-.6l.1-.1.9 1.1-3.3 3.1zm-4.5 3.2l-1.7 1.2-.1-.1.1-.1c.1 0 .1-.1.2-.3s.1-.3.2-.5v-.8l-.1-2.7-.8-1.2c-.2-.3-.4-.5-.5-.5-.2 0-.3 0-.5.1l-.2.1-.1-.1 2.1-1.4.1.1-.2.1c-.2.1-.3.3-.3.5 0 .1.1.3.3.6l.8 1.2 2.7 1.2c.3.1.5.2.6.2h.5c.1 0 .1 0 .2-.1l.1.1-2.1 1.4-.1-.1.1-.1.3-.3s.1-.2 0-.3c-.1-.1-.2-.2-.5-.3l-2.1-.9.1 2.2c0 .3 0 .5.1.7 0 .1.1.1.2.1h.2s.2-.1.3-.2l.1.2z" fill="#3298CB"/>
</svg>
